<?xml version="1.0" encoding="UTF-8"?> <svg xmlns="http://www.w3.org/2000/svg" viewBox="0 0 471.08 360.95"><defs><style>.cls-1{opacity:0.2;}.cls-2{fill:#fff;}.cls-3{fill:#d8e9fd;}.cls-4{fill:#596b9b;}.cls-5{fill:#fccfa9;}.cls-6{fill:#0d0a3e;}.cls-7{fill:#abe271;}.cls-8{fill:#85d72e;}.cls-9{fill:#832ddb;}.cls-10{fill:#000002;}.cls-11{fill:#fdbd84;}.cls-12{fill:#ea9a59;}.cls-13{fill:#3c3c6a;}.cls-14{fill:#00bad9;}.cls-15{fill:#0092c4;}.cls-16{fill:#53b1a9;}.cls-17{fill:#d0eae9;}.cls-18{fill:#778fcf;}.cls-19{fill:#c9d2ec;}.cls-20{fill:#88cbc8;}.cls-21{fill:#b3dcdb;}.cls-22{fill:#4c3e71;}.cls-23{fill:#b4dddc;}</style></defs><g id="objects"><g class="cls-1"><path class="cls-2" d="M405.33,339c8.75-9.26,27.4-29.75,22.17-61.86-3.56-21.87-6.14-54.79-90.9-76.68-98-25.3-84.55-94.9-142.31-123.89C129.6,44.13,70.68,82,85.18,146.51,99.27,209.23,61.47,210.41,43,248.17c-21.19,43.4,15.15,91,56.48,90.86Z"></path></g><path class="cls-3" d="M63.17,127.65l1.14-5.83-5.46-1.07a13.34,13.34,0,0,0-.72-4.27l4.5-3-3.31-4.93L55,111.42a13.3,13.3,0,0,0-4.42-3L51.66,103l-5.83-1.14-1.1,5.63a13.21,13.21,0,0,0-3.55.69l-3-4.5L33.23,107l2.89,4.31a13.3,13.3,0,0,0-3,4.42l-4.78-.94-1.14,5.83,4.94,1a13.18,13.18,0,0,0,1,4.5L28.91,129l3.31,4.93,4.5-3a13.24,13.24,0,0,0,4.35,2.52L40,138.88,45.82,140l1.17-6a13.32,13.32,0,0,0,3.77-1l2.89,4.31,4.93-3.31-3-4.5a13,13,0,0,0,2-3Zm-14.64-2.34A5.44,5.44,0,1,1,50,117.76,5.45,5.45,0,0,1,48.53,125.31Z"></path><path class="cls-3" d="M330.34,81.29l1.18-6-5.65-1.1a13.46,13.46,0,0,0-.75-4.42l4.66-3.12-3.43-5.1-4.45,3a13.92,13.92,0,0,0-4.57-3.08l1.1-5.65-6-1.18-1.15,5.82a13.73,13.73,0,0,0-3.66.72l-3.13-4.66-5.1,3.43,3,4.45a13.83,13.83,0,0,0-3.07,4.58l-4.94-1-1.19,6,5.12,1a13.64,13.64,0,0,0,1.08,4.65l-4.45,3,3.42,5.1L303,84.61a13.55,13.55,0,0,0,4.49,2.61l-1.12,5.69,6,1.18,1.21-6.16a13.81,13.81,0,0,0,3.9-1l3,4.45,5.1-3.42-3.12-4.66a13.9,13.9,0,0,0,2-3.12ZM315.2,78.88a5.63,5.63,0,1,1,1.53-7.82A5.64,5.64,0,0,1,315.2,78.88Z"></path><path class="cls-3" d="M88.07,96.51l.53-2.69-2.52-.5a6.37,6.37,0,0,0-.34-2L87.82,90l-1.53-2.28L84.3,89a6.16,6.16,0,0,0-2-1.37l.49-2.53-2.69-.53-.51,2.61a5.88,5.88,0,0,0-1.64.32l-1.4-2.08L74.24,87l1.33,2a6.06,6.06,0,0,0-1.37,2L72,90.56l-.53,2.69,2.29.45a6.17,6.17,0,0,0,.48,2.08l-2,1.33,1.53,2.28L75.85,98a6.27,6.27,0,0,0,2,1.17l-.5,2.54,2.69.53.54-2.76A5.74,5.74,0,0,0,82.34,99l1.33,2L86,99.47,84.56,97.4a6.34,6.34,0,0,0,.91-1.4Zm-6.76-1.08A2.52,2.52,0,1,1,82,91.94,2.52,2.52,0,0,1,81.31,95.43Z"></path><path class="cls-3" d="M63.24,92.78l.33-1.69L62,90.77a3.84,3.84,0,0,0-.21-1.24l1.31-.88-1-1.43-1.26.84a3.93,3.93,0,0,0-1.28-.87l.31-1.59-1.7-.33-.32,1.64a4,4,0,0,0-1,.2L56,85.8l-1.44,1L55.36,88a3.84,3.84,0,0,0-.86,1.29L53.11,89l-.33,1.7,1.43.28a4,4,0,0,0,.31,1.31l-1.25.84,1,1.44,1.31-.88a3.91,3.91,0,0,0,1.26.73l-.31,1.6,1.7.33.34-1.73a3.83,3.83,0,0,0,1.09-.29l.85,1.25,1.43-1L61,93.34a3.63,3.63,0,0,0,.58-.88ZM59,92.1a1.59,1.59,0,0,1-1.77-2.63A1.59,1.59,0,0,1,59,92.1Z"></path><path class="cls-3" d="M373.86,258.72l.4-2.07-1.94-.39a4.71,4.71,0,0,0-.26-1.52l1.6-1.07-1.18-1.76-1.53,1a4.84,4.84,0,0,0-1.57-1.06l.38-1.94-2.08-.41-.39,2a4.53,4.53,0,0,0-1.26.24l-1.08-1.6-1.76,1.18,1,1.53a4.73,4.73,0,0,0-1.06,1.58l-1.7-.34-.41,2.08,1.76.34a4.78,4.78,0,0,0,.37,1.61l-1.53,1,1.18,1.75,1.6-1.08a4.5,4.5,0,0,0,1.55.9l-.39,2,2.08.41.41-2.12a5,5,0,0,0,1.35-.36l1,1.53,1.75-1.17-1.07-1.61a4.93,4.93,0,0,0,.7-1.07Zm-5.22-.83a1.94,1.94,0,1,1,.53-2.69A1.94,1.94,0,0,1,368.64,257.89Z"></path><path class="cls-3" d="M392.21,281.54l.72-3.68-3.45-.68a8.34,8.34,0,0,0-.45-2.69l2.84-1.91-2.09-3.12-2.73,1.83a8.54,8.54,0,0,0-2.79-1.88l.68-3.45-3.68-.72-.7,3.56a8.22,8.22,0,0,0-2.24.43l-1.91-2.84-3.12,2.09,1.83,2.72a8.32,8.32,0,0,0-1.88,2.8l-3-.6-.72,3.69,3.12.61a8.41,8.41,0,0,0,.67,2.84l-2.73,1.83,2.1,3.11,2.84-1.91a8.36,8.36,0,0,0,2.74,1.6l-.68,3.47,3.69.72.73-3.76a8.45,8.45,0,0,0,2.39-.63l1.83,2.72,3.11-2.09-1.91-2.84a8.38,8.38,0,0,0,1.25-1.91ZM383,280.07a3.44,3.44,0,1,1,.94-4.77A3.43,3.43,0,0,1,383,280.07Z"></path><path class="cls-3" d="M345.16,113.94l.64-3.3-3.08-.6a7.4,7.4,0,0,0-.41-2.41l2.54-1.71L343,103.13l-2.43,1.64a7.58,7.58,0,0,0-2.5-1.69l.6-3.08-3.29-.65-.63,3.18a7.7,7.7,0,0,0-2,.39L331,100.38l-2.79,1.87,1.64,2.44a7.41,7.41,0,0,0-1.68,2.49l-2.7-.53-.65,3.3,2.8.55a7.35,7.35,0,0,0,.59,2.54l-2.44,1.64,1.88,2.78,2.54-1.71a7.4,7.4,0,0,0,2.45,1.43l-.61,3.11,3.3.64.66-3.37a7.38,7.38,0,0,0,2.13-.56l1.64,2.44,2.79-1.88L340.86,115a8,8,0,0,0,1.12-1.71Zm-8.28-1.32a3.08,3.08,0,1,1,.84-4.27A3.09,3.09,0,0,1,336.88,112.62Z"></path><path class="cls-4" d="M268.47,193h53.15a28.87,28.87,0,0,1,28.87,28.87V338.75a0,0,0,0,1,0,0H241.89a0,0,0,0,1,0,0V219.55A26.58,26.58,0,0,1,268.47,193Z"></path><path class="cls-5" d="M183.51,297.18c11.86,3.21,28.06-36,33.57-50.35,1.23-3.21,1.92-5.18,1.92-5.18L202,230s-1.06,1.87-2.72,5C191.3,249.89,169.47,293.37,183.51,297.18Z"></path><path class="cls-6" d="M199.26,235l17.82,11.85c1.23-3.21,1.92-5.18,1.92-5.18L202,230S200.92,231.87,199.26,235Z"></path><path class="cls-7" d="M231.53,228.93l-.13.85-.25,1.67-.91,6.08-.48,3.21-.23,1.53-.35,2.39-1.06,7.07-11.74-7.89,0,0-.06,0-1.42-1-.11-.08-3.37-2.26-1.63-1.1L198,231.49c2.57-4.91,5.21-9.7,7.84-14.21h0c.67-1.14,1.34-2.26,2-3.36.58-.95,1.15-1.89,1.73-2.81h0c.15-.25.31-.5.47-.74,7.31-11.59,14.36-20.26,19.74-22.48a7.61,7.61,0,0,1,1.29-.4v.95l.06,5.68,0,2.2.05,4.59,0,1.81.07,5.77,0,2,0,4.9,0,1.56.06,5.93,0,1.8Z"></path><path class="cls-2" d="M214.75,242.74l.11.08,1.42,1,.81-4.14,4-20.23a.86.86,0,1,0-1.68-.32l-3.26,16.62-.74,3.8Z"></path><path class="cls-7" d="M342.76,266.83l-1.23.09-3.73.29-2.45.19-11.07.87-2.71.2-1.23.1-2.42.19-7.55.58a19.8,19.8,0,0,1-.63-3.11v.7l-.19,10.9-.31,18s.07,20.7-.18,42.83H200.5c1.31-8,2.86-17.53,4.54-27.77.09-.59.19-1.17.29-1.76q.51-3.09,1-6.26l.51-3.12c.07-.43.14-.86.22-1.29.12-.75.24-1.5.37-2.25.7-4.28,1.42-8.62,2.15-13,0-.28.09-.57.14-.84l1.41-8.42c.13-.79.27-1.57.4-2.36.18-1.06.36-2.12.53-3.17l.45-2.62c1.29-7.6,2.57-15,3.8-22,.61-3.45,1.2-6.8,1.78-10,0-.19.07-.39.11-.58s.09-.5.14-.75l.06-.37c.08-.4.14-.8.22-1.19s.09-.51.13-.76c1.49-8.13,3.59-18.67,5.76-27.21.31-1.23.62-2.42.93-3.56l.36-1.28c.2-.69.39-1.35.59-2,1.25-4.08,2.48-7,3.55-8a1.58,1.58,0,0,1,.41-.28l.7-.31.63-.29h0a116.29,116.29,0,0,1,11.69-4.35c.71-.23,1.41-.44,2.11-.65l1.88-.53q1.68-.48,3.27-.87a112.35,112.35,0,0,1,17-3l23.47.68s4.42,2.55,11.57,7.67h0c1,.71,2,1.46,3.12,2.27,4.29,3.17,9.33,7.1,14.84,11.78,0,0,.67.48,1.76,1.43l0,0c.37.32.78.7,1.23,1.13h0a52,52,0,0,1,12,18.06c.22.57.48,1.32.76,2.25s.63,2.19,1,3.53c.11.45.23.91.34,1.39s.3,1.26.45,1.93c.78,3.52,1.59,7.72,2.31,12.25.12.73.23,1.47.34,2.22h0c.38,2.54.72,5.16,1,7.8.1.84.18,1.67.25,2.51s.17,1.83.23,2.74.13,1.83.18,2.73c.11,1.93.18,3.83.2,5.68h0Z"></path><path class="cls-8" d="M231.48,188.2a.85.85,0,0,1-.39.24,1,1,0,0,1-1-.24l-.31-.31a7.61,7.61,0,0,1,1.29-.4l.63-.29h0A1,1,0,0,1,231.48,188.2Z"></path><path class="cls-8" d="M242,188.45a1,1,0,0,0,1.38,0l1.83-1.83a1,1,0,0,0-1.38-1.38L242,187.07A1,1,0,0,0,242,188.45Z"></path><path class="cls-8" d="M250.67,180.8a1,1,0,0,1-.28.63l-1.83,1.82a1,1,0,0,1-1.38,0,1,1,0,0,1,0-1.37l.22-.21Q249.08,181.19,250.67,180.8Z"></path><path class="cls-8" d="M246.94,186.38l1.83,1.82a1,1,0,0,0,1.38,0,1,1,0,0,0,0-1.37L248.32,185a1,1,0,0,0-1.38,1.38Z"></path><path class="cls-8" d="M245.44,183.5a1,1,0,0,1-1.38,0l-.65-.65c.71-.23,1.41-.44,2.11-.65A1,1,0,0,1,245.44,183.5Z"></path><path class="cls-8" d="M260.66,188.45a1,1,0,0,0,1.38,0l1.82-1.83a1,1,0,0,0-1.38-1.38l-1.82,1.83A1,1,0,0,0,260.66,188.45Z"></path><path class="cls-8" d="M265.85,183.25a1,1,0,0,0,1.38,0l1.83-1.82a1,1,0,0,0-1.38-1.38l-1.83,1.83A1,1,0,0,0,265.85,183.25Z"></path><path class="cls-8" d="M265.61,186.38l1.82,1.82a1,1,0,0,0,1.38,0,1,1,0,0,0,0-1.37L267,185a1,1,0,0,0-1.38,1.38Z"></path><path class="cls-8" d="M260.9,181.67l1.83,1.83a1,1,0,0,0,1.38-1.38l-1.83-1.83a1,1,0,0,0-1.38,1.38Z"></path><path class="cls-8" d="M279.32,188.45a1,1,0,0,0,1.38,0l1.83-1.83a1,1,0,0,0-1.38-1.38l-1.83,1.83A1,1,0,0,0,279.32,188.45Z"></path><path class="cls-8" d="M284.52,183.25a1,1,0,0,0,1.37,0l1.83-1.82a1,1,0,0,0-1.38-1.38l-1.82,1.83A1,1,0,0,0,284.52,183.25Z"></path><path class="cls-8" d="M284.27,186.38l1.83,1.82a1,1,0,0,0,1.38,0,1,1,0,0,0,0-1.37L285.65,185a1,1,0,0,0-1.38,1.38Z"></path><path class="cls-8" d="M279.57,181.67l1.82,1.83a1,1,0,0,0,1.38-1.38l-1.83-1.83a1,1,0,0,0-1.37,0A1,1,0,0,0,279.57,181.67Z"></path><path class="cls-8" d="M298,188.45a1,1,0,0,0,1.38,0l1.82-1.83a1,1,0,0,0-1.38-1.38L298,187.07A1,1,0,0,0,298,188.45Z"></path><path class="cls-8" d="M305.88,188.39a1,1,0,0,1-1.12-.19l-1.82-1.82a.87.87,0,0,1-.18-.26C303.75,186.83,304.79,187.58,305.88,188.39Z"></path><path class="cls-8" d="M223.33,202.79a1,1,0,0,0,1.38,0l1.82-1.83a1,1,0,0,0-1.38-1.37l-1.82,1.82A1,1,0,0,0,223.33,202.79Z"></path><path class="cls-8" d="M228.52,197.6a1,1,0,0,0,1.38,0l1.82-1.83a1,1,0,1,0-1.37-1.38l-1.83,1.83A1,1,0,0,0,228.52,197.6Z"></path><path class="cls-8" d="M228.28,200.72l1.82,1.83a1,1,0,1,0,1.38-1.38l-1.82-1.83a1,1,0,0,0-1.38,1.38Z"></path><path class="cls-8" d="M223.57,196l1.83,1.83a1,1,0,0,0,1.37-1.38L225,194.64a1,1,0,0,0-1.38,1.37Z"></path><path class="cls-8" d="M242,202.79a1,1,0,0,0,1.38,0L245.2,201a1,1,0,0,0-1.38-1.37L242,201.41A1,1,0,0,0,242,202.79Z"></path><path class="cls-8" d="M247.19,197.6a1,1,0,0,0,1.37,0l1.83-1.83a1,1,0,1,0-1.38-1.38l-1.82,1.83A1,1,0,0,0,247.19,197.6Z"></path><path class="cls-8" d="M246.94,200.72l1.83,1.83a1,1,0,1,0,1.38-1.38l-1.83-1.83a1,1,0,0,0-1.38,1.38Z"></path><path class="cls-8" d="M242.23,196l1.83,1.83a1,1,0,0,0,1.38-1.38l-1.83-1.82a1,1,0,0,0-1.38,1.37Z"></path><path class="cls-8" d="M260.66,202.79a1,1,0,0,0,1.38,0l1.82-1.83a1,1,0,0,0-1.38-1.37l-1.82,1.82A1,1,0,0,0,260.66,202.79Z"></path><path class="cls-8" d="M265.85,197.6a1,1,0,0,0,1.38,0l1.83-1.83a1,1,0,1,0-1.38-1.38l-1.83,1.83A1,1,0,0,0,265.85,197.6Z"></path><path class="cls-8" d="M265.61,200.72l1.82,1.83a1,1,0,1,0,1.38-1.38L267,199.34a1,1,0,0,0-1.38,1.38Z"></path><path class="cls-8" d="M260.9,196l1.83,1.83a1,1,0,0,0,1.38-1.38l-1.83-1.82A1,1,0,0,0,260.9,196Z"></path><path class="cls-8" d="M279.32,202.79a1,1,0,0,0,1.38,0l1.83-1.83a1,1,0,0,0-1.38-1.37l-1.83,1.82A1,1,0,0,0,279.32,202.79Z"></path><path class="cls-8" d="M284.52,197.6a1,1,0,0,0,1.37,0l1.83-1.83a1,1,0,0,0-1.38-1.38l-1.82,1.83A1,1,0,0,0,284.52,197.6Z"></path><path class="cls-8" d="M284.27,200.72l1.83,1.83a1,1,0,1,0,1.38-1.38l-1.83-1.83a1,1,0,0,0-1.38,1.38Z"></path><path class="cls-8" d="M279.57,196l1.82,1.83a1,1,0,0,0,1.38-1.38l-1.83-1.82a1,1,0,0,0-1.37,0A1,1,0,0,0,279.57,196Z"></path><path class="cls-8" d="M298,202.79a1,1,0,0,0,1.38,0l1.82-1.83a1,1,0,0,0-1.38-1.37L298,201.41A1,1,0,0,0,298,202.79Z"></path><path class="cls-8" d="M303.18,197.6a1,1,0,0,0,1.38,0l1.83-1.83a1,1,0,1,0-1.38-1.38l-1.83,1.83A1,1,0,0,0,303.18,197.6Z"></path><path class="cls-8" d="M302.94,200.72l1.82,1.83a1,1,0,1,0,1.38-1.38l-1.82-1.83a1,1,0,0,0-1.38,1.38Z"></path><path class="cls-8" d="M298.23,196l1.83,1.83a1,1,0,0,0,1.38-1.38l-1.83-1.82a1,1,0,0,0-1.38,1.37Z"></path><path class="cls-8" d="M316.65,202.79a1,1,0,0,0,1.38,0l1.83-1.83a1,1,0,0,0-1.38-1.37l-1.83,1.82A1,1,0,0,0,316.65,202.79Z"></path><path class="cls-8" d="M323.73,202.75a.83.83,0,0,1-.3-.2l-.93-.93C322.87,201.94,323.28,202.32,323.73,202.75Z"></path><path class="cls-8" d="M207.86,215.31,206,217.13a.9.9,0,0,1-.19.15c.67-1.14,1.34-2.26,2-3.36h0A1,1,0,0,1,207.86,215.31Z"></path><path class="cls-8" d="M213.06,210.12l-1.83,1.82a1,1,0,0,1-1.38,0,1,1,0,0,1-.27-.83h0c.15-.25.31-.5.47-.74l1.63-1.63a1,1,0,0,1,1.38,1.38Z"></path><path class="cls-8" d="M209.61,215.07l1.83,1.82a1,1,0,0,0,1.38-1.38L211,213.69a1,1,0,0,0-1.38,1.38Z"></path><path class="cls-8" d="M223.33,217.13a1,1,0,0,0,1.38,0l1.82-1.82a1,1,0,0,0-1.38-1.38l-1.82,1.83A1,1,0,0,0,223.33,217.13Z"></path><path class="cls-8" d="M228.52,211.94a1,1,0,0,0,1.38,0l1.82-1.82a1,1,0,1,0-1.37-1.38l-1.83,1.82A1,1,0,0,0,228.52,211.94Z"></path><path class="cls-8" d="M228.28,215.07l1.82,1.82a1,1,0,0,0,1.38-1.38l-1.82-1.82a1,1,0,0,0-1.38,1.38Z"></path><path class="cls-8" d="M223.57,210.36l1.83,1.82a1,1,0,0,0,1.37-1.37L225,209a1,1,0,0,0-1.38,1.38Z"></path><path class="cls-8" d="M242,217.13a1,1,0,0,0,1.38,0l1.83-1.82a1,1,0,0,0-1.38-1.38L242,215.76A1,1,0,0,0,242,217.13Z"></path><path class="cls-8" d="M247.19,211.94a1,1,0,0,0,1.37,0l1.83-1.82a1,1,0,0,0-1.38-1.38l-1.82,1.82A1,1,0,0,0,247.19,211.94Z"></path><path class="cls-8" d="M246.94,215.07l1.83,1.82a1,1,0,0,0,1.38-1.38l-1.83-1.82a1,1,0,0,0-1.38,1.38Z"></path><path class="cls-8" d="M242.23,210.36l1.83,1.82a1,1,0,0,0,1.38,0,1,1,0,0,0,0-1.37L243.61,209a1,1,0,0,0-1.38,1.38Z"></path><path class="cls-8" d="M260.66,217.13a1,1,0,0,0,1.38,0l1.82-1.82a1,1,0,0,0-1.38-1.38l-1.82,1.83A1,1,0,0,0,260.66,217.13Z"></path><path class="cls-8" d="M265.85,211.94a1,1,0,0,0,1.38,0l1.83-1.82a1,1,0,0,0-1.38-1.38l-1.83,1.82A1,1,0,0,0,265.85,211.94Z"></path><path class="cls-8" d="M265.61,215.07l1.82,1.82a1,1,0,0,0,1.38-1.38L267,213.69a1,1,0,0,0-1.38,1.38Z"></path><path class="cls-8" d="M260.9,210.36l1.83,1.82a1,1,0,0,0,1.38,0,1,1,0,0,0,0-1.37L262.28,209a1,1,0,0,0-1.38,1.38Z"></path><path class="cls-8" d="M279.32,217.13a1,1,0,0,0,1.38,0l1.83-1.82a1,1,0,0,0-1.38-1.38l-1.83,1.83A1,1,0,0,0,279.32,217.13Z"></path><path class="cls-8" d="M284.52,211.94a1,1,0,0,0,1.37,0l1.83-1.82a1,1,0,0,0-1.38-1.38l-1.82,1.82A1,1,0,0,0,284.52,211.94Z"></path><path class="cls-8" d="M284.27,215.07l1.83,1.82a1,1,0,0,0,1.38-1.38l-1.83-1.82a1,1,0,0,0-1.38,1.38Z"></path><path class="cls-8" d="M279.57,210.36l1.82,1.82a1,1,0,0,0,1.38,0,1,1,0,0,0,0-1.37L280.94,209a1,1,0,0,0-1.37,0A1,1,0,0,0,279.57,210.36Z"></path><path class="cls-8" d="M298,217.13a1,1,0,0,0,1.38,0l1.82-1.82a1,1,0,0,0-1.38-1.38L298,215.76A1,1,0,0,0,298,217.13Z"></path><path class="cls-8" d="M303.18,211.94a1,1,0,0,0,1.38,0l1.83-1.82a1,1,0,0,0-1.38-1.38l-1.83,1.82A1,1,0,0,0,303.18,211.94Z"></path><path class="cls-8" d="M302.94,215.07l1.82,1.82a1,1,0,0,0,1.38-1.38l-1.82-1.82a1,1,0,0,0-1.38,1.38Z"></path><path class="cls-8" d="M298.23,210.36l1.83,1.82a1,1,0,0,0,1.38,0,1,1,0,0,0,0-1.37L299.61,209a1,1,0,0,0-1.38,1.38Z"></path><path class="cls-8" d="M316.65,217.13a1,1,0,0,0,1.38,0l1.83-1.82a1,1,0,0,0-1.38-1.38l-1.83,1.83A1,1,0,0,0,316.65,217.13Z"></path><path class="cls-8" d="M321.85,211.94a1,1,0,0,0,1.38,0l1.82-1.82a1,1,0,0,0-1.38-1.38l-1.82,1.82A1,1,0,0,0,321.85,211.94Z"></path><path class="cls-8" d="M321.6,215.07l1.83,1.82a1,1,0,0,0,1.38-1.38L323,213.69a1,1,0,0,0-1.38,1.38Z"></path><path class="cls-8" d="M316.9,210.36l1.82,1.82a1,1,0,0,0,1.38,0,1,1,0,0,0,0-1.37L318.28,209a1,1,0,0,0-1.38,1.38Z"></path><path class="cls-8" d="M204.66,231.48a1,1,0,0,0,1.38,0l1.83-1.83a1,1,0,0,0-1.38-1.38l-1.83,1.83A1,1,0,0,0,204.66,231.48Z"></path><path class="cls-8" d="M209.85,226.29a1,1,0,0,0,1.38,0l1.83-1.83a1,1,0,0,0-1.38-1.38l-1.83,1.83A1,1,0,0,0,209.85,226.29Z"></path><path class="cls-8" d="M209.61,229.41l1.83,1.83a1,1,0,0,0,1.38-1.38L211,228a1,1,0,0,0-1.38,1.38Z"></path><path class="cls-8" d="M204.9,224.7l1.83,1.83a1,1,0,1,0,1.38-1.38l-1.83-1.83a1,1,0,0,0-1.38,1.38Z"></path><path class="cls-8" d="M223.33,231.48a1,1,0,0,0,1.38,0l1.82-1.83a1,1,0,0,0-1.38-1.38l-1.82,1.83A1,1,0,0,0,223.33,231.48Z"></path><path class="cls-8" d="M228.52,226.29a1,1,0,0,0,1.38,0l1.82-1.83a1,1,0,1,0-1.37-1.38l-1.83,1.83A1,1,0,0,0,228.52,226.29Z"></path><path class="cls-8" d="M228.28,229.41l1.82,1.83a1,1,0,0,0,1.38-1.38L229.66,228a1,1,0,0,0-1.38,1.38Z"></path><path class="cls-8" d="M223.57,224.7l1.83,1.83a1,1,0,0,0,1.37-1.38L225,223.32a1,1,0,0,0-1.38,1.38Z"></path><path class="cls-8" d="M242,231.48a1,1,0,0,0,1.38,0l1.83-1.83a1,1,0,0,0-1.38-1.38L242,230.1A1,1,0,0,0,242,231.48Z"></path><path class="cls-8" d="M247.19,226.29a1,1,0,0,0,1.37,0l1.83-1.83a1,1,0,0,0-1.38-1.38l-1.82,1.83A1,1,0,0,0,247.19,226.29Z"></path><path class="cls-8" d="M246.94,229.41l1.83,1.83a1,1,0,0,0,1.38-1.38L248.32,228a1,1,0,0,0-1.38,1.38Z"></path><path class="cls-8" d="M242.23,224.7l1.83,1.83a1,1,0,0,0,1.38-1.38l-1.83-1.83a1,1,0,0,0-1.38,1.38Z"></path><path class="cls-8" d="M260.66,231.48a1,1,0,0,0,1.38,0l1.82-1.83a1,1,0,0,0-1.38-1.38l-1.82,1.83A1,1,0,0,0,260.66,231.48Z"></path><path class="cls-8" d="M265.85,226.29a1,1,0,0,0,1.38,0l1.83-1.83a1,1,0,0,0-1.38-1.38l-1.83,1.83A1,1,0,0,0,265.85,226.29Z"></path><path class="cls-8" d="M265.61,229.41l1.82,1.83a1,1,0,0,0,1.38-1.38L267,228a1,1,0,0,0-1.38,1.38Z"></path><path class="cls-8" d="M260.9,224.7l1.83,1.83a1,1,0,0,0,1.38-1.38l-1.83-1.83a1,1,0,0,0-1.38,1.38Z"></path><path class="cls-8" d="M279.32,231.48a1,1,0,0,0,1.38,0l1.83-1.83a1,1,0,0,0-1.38-1.38l-1.83,1.83A1,1,0,0,0,279.32,231.48Z"></path><path class="cls-8" d="M284.52,226.29a1,1,0,0,0,1.37,0l1.83-1.83a1,1,0,0,0-1.38-1.38l-1.82,1.83A1,1,0,0,0,284.52,226.29Z"></path><path class="cls-8" d="M284.27,229.41l1.83,1.83a1,1,0,0,0,1.38-1.38L285.65,228a1,1,0,0,0-1.38,1.38Z"></path><path class="cls-8" d="M279.57,224.7l1.82,1.83a1,1,0,0,0,1.38-1.38l-1.83-1.83a1,1,0,0,0-1.37,0A1,1,0,0,0,279.57,224.7Z"></path><path class="cls-8" d="M298,231.48a1,1,0,0,0,1.38,0l1.82-1.83a1,1,0,0,0-1.38-1.38L298,230.1A1,1,0,0,0,298,231.48Z"></path><path class="cls-8" d="M303.18,226.29a1,1,0,0,0,1.38,0l1.83-1.83a1,1,0,0,0-1.38-1.38l-1.83,1.83A1,1,0,0,0,303.18,226.29Z"></path><path class="cls-8" d="M302.94,229.41l1.82,1.83a1,1,0,0,0,1.38-1.38L304.32,228a1,1,0,0,0-1.38,1.38Z"></path><path class="cls-8" d="M298.23,224.7l1.83,1.83a1,1,0,0,0,1.38-1.38l-1.83-1.83a1,1,0,0,0-1.38,1.38Z"></path><path class="cls-8" d="M316.65,231.48a1,1,0,0,0,1.38,0l1.83-1.83a1,1,0,0,0-1.38-1.38l-1.83,1.83A1,1,0,0,0,316.65,231.48Z"></path><path class="cls-8" d="M321.85,226.29a1,1,0,0,0,1.38,0l1.82-1.83a1,1,0,0,0-1.38-1.38l-1.82,1.83A1,1,0,0,0,321.85,226.29Z"></path><path class="cls-8" d="M321.6,229.41l1.83,1.83a1,1,0,0,0,1.38-1.38L323,228a1,1,0,0,0-1.38,1.38Z"></path><path class="cls-8" d="M316.9,224.7l1.82,1.83a1,1,0,0,0,1.38-1.38l-1.82-1.83a1,1,0,0,0-1.38,1.38Z"></path><path class="cls-8" d="M338.26,229.92l-1.56,1.56a1,1,0,0,1-1.38-1.38l1.83-1.83a.94.94,0,0,1,.66-.28C338,228.61,338.11,229.25,338.26,229.92Z"></path><path class="cls-8" d="M337.47,226.6l-.08-.07-1.83-1.83a1,1,0,0,1,0-1.38,1,1,0,0,1,.95-.25C336.81,224.07,337.14,225.26,337.47,226.6Z"></path><path class="cls-8" d="M213.06,238.8l-1.68,1.68-1.63-1.1a.64.64,0,0,1,.1-.13l1.83-1.82a1,1,0,0,1,1.38,1.37Z"></path><path class="cls-8" d="M223.33,245.82a1,1,0,0,0,1.38,0l1.82-1.82a1,1,0,0,0-1.38-1.38l-1.82,1.82A1,1,0,0,0,223.33,245.82Z"></path><path class="cls-8" d="M228.52,240.63a1,1,0,0,0,1.38,0l1.82-1.83a1,1,0,0,0-1.37-1.38l-1.83,1.83A1,1,0,0,0,228.52,240.63Z"></path><path class="cls-8" d="M228.28,243.75l1.82,1.83a1,1,0,0,0,1.38-1.38l-1.82-1.83a1,1,0,0,0-1.38,1.38Z"></path><path class="cls-8" d="M223.57,239.05l1.83,1.82a1,1,0,0,0,1.37-1.38L225,237.67a1,1,0,0,0-1.38,1.38Z"></path><path class="cls-8" d="M242,245.82a1,1,0,0,0,1.38,0L245.2,244a1,1,0,0,0-1.38-1.38L242,244.44A1,1,0,0,0,242,245.82Z"></path><path class="cls-8" d="M247.19,240.63a1,1,0,0,0,1.37,0l1.83-1.83a1,1,0,0,0-1.38-1.38l-1.82,1.83A1,1,0,0,0,247.19,240.63Z"></path><path class="cls-8" d="M246.94,243.75l1.83,1.83a1,1,0,0,0,1.38-1.38l-1.83-1.83a1,1,0,0,0-1.38,1.38Z"></path><path class="cls-8" d="M242.23,239.05l1.83,1.82a1,1,0,0,0,1.38-1.38l-1.83-1.82a1,1,0,0,0-1.38,1.38Z"></path><path class="cls-8" d="M260.66,245.82a1,1,0,0,0,1.38,0l1.82-1.82a1,1,0,0,0-1.38-1.38l-1.82,1.82A1,1,0,0,0,260.66,245.82Z"></path><path class="cls-8" d="M265.85,240.63a1,1,0,0,0,1.38,0l1.83-1.83a1,1,0,0,0-1.38-1.38l-1.83,1.83A1,1,0,0,0,265.85,240.63Z"></path><path class="cls-8" d="M265.61,243.75l1.82,1.83a1,1,0,0,0,1.38-1.38L267,242.37a1,1,0,0,0-1.38,1.38Z"></path><path class="cls-8" d="M260.9,239.05l1.83,1.82a1,1,0,0,0,1.38-1.38l-1.83-1.82a1,1,0,0,0-1.38,1.38Z"></path><path class="cls-8" d="M279.32,245.82a1,1,0,0,0,1.38,0l1.83-1.82a1,1,0,0,0-1.38-1.38l-1.83,1.82A1,1,0,0,0,279.32,245.82Z"></path><path class="cls-8" d="M284.52,240.63a1,1,0,0,0,1.37,0l1.83-1.83a1,1,0,0,0-1.38-1.38l-1.82,1.83A1,1,0,0,0,284.52,240.63Z"></path><path class="cls-8" d="M284.27,243.75l1.83,1.83a1,1,0,0,0,1.38-1.38l-1.83-1.83a1,1,0,0,0-1.38,1.38Z"></path><path class="cls-8" d="M279.57,239.05l1.82,1.82a1,1,0,0,0,1.38-1.38l-1.83-1.82a1,1,0,0,0-1.37,0A1,1,0,0,0,279.57,239.05Z"></path><path class="cls-8" d="M298,245.82a1,1,0,0,0,1.38,0l1.82-1.82a1,1,0,0,0-1.38-1.38L298,244.44A1,1,0,0,0,298,245.82Z"></path><path class="cls-8" d="M303.18,240.63a1,1,0,0,0,1.38,0l1.83-1.83a1,1,0,0,0-1.38-1.38l-1.83,1.83A1,1,0,0,0,303.18,240.63Z"></path><path class="cls-8" d="M302.94,243.75l1.82,1.83a1,1,0,0,0,1.38-1.38l-1.82-1.83a1,1,0,0,0-1.38,1.38Z"></path><path class="cls-8" d="M298.23,239.05l1.83,1.82a1,1,0,0,0,1.38-1.38l-1.83-1.82a1,1,0,0,0-1.38,1.38Z"></path><path class="cls-8" d="M316.65,245.82a1,1,0,0,0,1.38,0l1.83-1.82a1,1,0,0,0-1.38-1.38l-1.83,1.82A1,1,0,0,0,316.65,245.82Z"></path><path class="cls-8" d="M321.85,240.63a1,1,0,0,0,1.38,0l1.82-1.83a1,1,0,0,0-1.38-1.38l-1.82,1.83A1,1,0,0,0,321.85,240.63Z"></path><path class="cls-8" d="M321.6,243.75l1.83,1.83a1,1,0,0,0,1.38-1.38L323,242.37a1,1,0,0,0-1.38,1.38Z"></path><path class="cls-8" d="M316.9,239.05l1.82,1.82a1,1,0,0,0,1.38-1.38l-1.82-1.82a1,1,0,0,0-1.38,1.38Z"></path><path class="cls-8" d="M335.32,245.82a1,1,0,0,0,1.38,0l1.82-1.82a1,1,0,1,0-1.37-1.38l-1.83,1.82A1,1,0,0,0,335.32,245.82Z"></path><path class="cls-8" d="M340.91,244.39l-.64-.64a1,1,0,0,1,0-1.38,1.21,1.21,0,0,1,.3-.2C340.69,242.9,340.8,243.64,340.91,244.39Z"></path><path class="cls-8" d="M335.56,239.05l1.83,1.82a1,1,0,0,0,1.38-1.38l-1.83-1.82a1,1,0,0,0-1.38,1.38Z"></path><path class="cls-8" d="M223.33,260.17a1,1,0,0,0,1.38,0l1.82-1.83a1,1,0,0,0-1.38-1.38l-1.82,1.83A1,1,0,0,0,223.33,260.17Z"></path><path class="cls-8" d="M228.52,255a1,1,0,0,0,1.38,0l1.82-1.82a1,1,0,1,0-1.37-1.38l-1.83,1.82A1,1,0,0,0,228.52,255Z"></path><path class="cls-8" d="M228.28,258.1l1.82,1.82a1,1,0,0,0,1.38-1.38l-1.82-1.82a1,1,0,0,0-1.38,1.38Z"></path><path class="cls-8" d="M223.57,253.39l1.83,1.83a1,1,0,0,0,1.37-1.38L225,252a1,1,0,0,0-1.38,1.38Z"></path><path class="cls-8" d="M242,260.17a1,1,0,0,0,1.38,0l1.83-1.83a1,1,0,0,0-1.38-1.38L242,258.79A1,1,0,0,0,242,260.17Z"></path><path class="cls-8" d="M247.19,255a1,1,0,0,0,1.37,0l1.83-1.82a1,1,0,0,0-1.38-1.38l-1.82,1.82A1,1,0,0,0,247.19,255Z"></path><path class="cls-8" d="M246.94,258.1l1.83,1.82a1,1,0,0,0,1.38-1.38l-1.83-1.82a1,1,0,0,0-1.38,1.38Z"></path><path class="cls-8" d="M242.23,253.39l1.83,1.83a1,1,0,0,0,1.38-1.38L243.61,252a1,1,0,0,0-1.38,1.38Z"></path><path class="cls-8" d="M260.66,260.17a1,1,0,0,0,1.38,0l1.82-1.83a1,1,0,0,0-1.38-1.38l-1.82,1.83A1,1,0,0,0,260.66,260.17Z"></path><path class="cls-8" d="M265.85,255a1,1,0,0,0,1.38,0l1.83-1.82a1,1,0,0,0-1.38-1.38l-1.83,1.82A1,1,0,0,0,265.85,255Z"></path><path class="cls-8" d="M265.61,258.1l1.82,1.82a1,1,0,0,0,1.38-1.38L267,256.72a1,1,0,0,0-1.38,1.38Z"></path><path class="cls-8" d="M260.9,253.39l1.83,1.83a1,1,0,0,0,1.38-1.38L262.28,252a1,1,0,0,0-1.38,1.38Z"></path><path class="cls-8" d="M279.32,260.17a1,1,0,0,0,1.38,0l1.83-1.83a1,1,0,0,0-1.38-1.38l-1.83,1.83A1,1,0,0,0,279.32,260.17Z"></path><path class="cls-8" d="M284.52,255a1,1,0,0,0,1.37,0l1.83-1.82a1,1,0,0,0-1.38-1.38l-1.82,1.82A1,1,0,0,0,284.52,255Z"></path><path class="cls-8" d="M284.27,258.1l1.83,1.82a1,1,0,0,0,1.38-1.38l-1.83-1.82a1,1,0,0,0-1.38,1.38Z"></path><path class="cls-8" d="M279.57,253.39l1.82,1.83a1,1,0,0,0,1.38-1.38L280.94,252a1,1,0,0,0-1.37,0A1,1,0,0,0,279.57,253.39Z"></path><path class="cls-8" d="M298,260.17a1,1,0,0,0,1.38,0l1.82-1.83a1,1,0,0,0-1.38-1.38L298,258.79A1,1,0,0,0,298,260.17Z"></path><path class="cls-8" d="M303.18,255a1,1,0,0,0,1.38,0l1.83-1.82a1,1,0,0,0-1.38-1.38l-1.83,1.82A1,1,0,0,0,303.18,255Z"></path><path class="cls-8" d="M302.94,258.1l1.82,1.82a1,1,0,0,0,1.38-1.38l-1.82-1.82a1,1,0,0,0-1.38,1.38Z"></path><path class="cls-8" d="M298.23,253.39l1.83,1.83a1,1,0,0,0,1.38-1.38L299.61,252a1,1,0,0,0-1.38,1.38Z"></path><path class="cls-8" d="M316.65,260.17a1,1,0,0,0,1.38,0l1.83-1.83a1,1,0,0,0-1.38-1.38l-1.83,1.83A1,1,0,0,0,316.65,260.17Z"></path><path class="cls-8" d="M321.85,255a1,1,0,0,0,1.38,0l1.82-1.82a1,1,0,0,0-1.38-1.38l-1.82,1.82A1,1,0,0,0,321.85,255Z"></path><path class="cls-8" d="M321.6,258.1l1.83,1.82a1,1,0,0,0,1.38-1.38L323,256.72a1,1,0,0,0-1.38,1.38Z"></path><path class="cls-8" d="M316.9,253.39l1.82,1.83a1,1,0,0,0,1.38-1.38L318.28,252a1,1,0,0,0-1.38,1.38Z"></path><path class="cls-8" d="M335.32,260.17a1,1,0,0,0,1.38,0l1.82-1.83a1,1,0,1,0-1.37-1.38l-1.83,1.83A1,1,0,0,0,335.32,260.17Z"></path><path class="cls-8" d="M342.15,254.71l-.26.26a1,1,0,0,1-1.38-1.38l1.39-1.39C342,253,342.08,253.87,342.15,254.71Z"></path><path class="cls-8" d="M342.56,260.18a.83.83,0,0,1-.46-.26l-1.83-1.82a1,1,0,0,1,1.38-1.38l.73.73Q342.49,258.83,342.56,260.18Z"></path><path class="cls-8" d="M335.56,253.39l1.83,1.83a1,1,0,0,0,1.38-1.38L336.94,252a1,1,0,0,0-1.38,1.38Z"></path><path class="cls-8" d="M213.06,267.49l-1,1,.45-2.62a.94.94,0,0,1,.52.27A1,1,0,0,1,213.06,267.49Z"></path><path class="cls-8" d="M212.82,274.27a1,1,0,0,1-1.38,0l-.28-.28c.13-.79.27-1.57.4-2.36l1.26,1.26A1,1,0,0,1,212.82,274.27Z"></path><path class="cls-8" d="M223.33,274.51a1,1,0,0,0,1.38,0l1.82-1.83a1,1,0,0,0-1.38-1.38l-1.82,1.83A1,1,0,0,0,223.33,274.51Z"></path><path class="cls-8" d="M228.52,269.32a1,1,0,0,0,1.38,0l1.82-1.83a1,1,0,1,0-1.37-1.38l-1.83,1.83A1,1,0,0,0,228.52,269.32Z"></path><path class="cls-8" d="M228.28,272.44l1.82,1.83a1,1,0,0,0,1.38-1.38l-1.82-1.83a1,1,0,0,0-1.38,1.38Z"></path><path class="cls-8" d="M223.57,267.73l1.83,1.83a1,1,0,0,0,1.37-1.38L225,266.35a1,1,0,0,0-1.38,1.38Z"></path><path class="cls-8" d="M242,274.51a1,1,0,0,0,1.38,0l1.83-1.83a1,1,0,0,0-1.38-1.38L242,273.13A1,1,0,0,0,242,274.51Z"></path><path class="cls-8" d="M247.19,269.32a1,1,0,0,0,1.37,0l1.83-1.83a1,1,0,0,0-1.38-1.38l-1.82,1.83A1,1,0,0,0,247.19,269.32Z"></path><path class="cls-8" d="M246.94,272.44l1.83,1.83a1,1,0,0,0,1.38-1.38l-1.83-1.83a1,1,0,0,0-1.38,1.38Z"></path><path class="cls-8" d="M242.23,267.73l1.83,1.83a1,1,0,0,0,1.38-1.38l-1.83-1.83a1,1,0,0,0-1.38,1.38Z"></path><path class="cls-8" d="M260.66,274.51a1,1,0,0,0,1.38,0l1.82-1.83a1,1,0,0,0-1.38-1.38l-1.82,1.83A1,1,0,0,0,260.66,274.51Z"></path><path class="cls-8" d="M265.85,269.32a1,1,0,0,0,1.38,0l1.83-1.83a1,1,0,0,0-1.38-1.38l-1.83,1.83A1,1,0,0,0,265.85,269.32Z"></path><path class="cls-8" d="M265.61,272.44l1.82,1.83a1,1,0,0,0,1.38-1.38L267,271.06a1,1,0,0,0-1.38,1.38Z"></path><path class="cls-8" d="M260.9,267.73l1.83,1.83a1,1,0,0,0,1.38-1.38l-1.83-1.83a1,1,0,0,0-1.38,1.38Z"></path><path class="cls-8" d="M279.32,274.51a1,1,0,0,0,1.38,0l1.83-1.83a1,1,0,0,0-1.38-1.38l-1.83,1.83A1,1,0,0,0,279.32,274.51Z"></path><path class="cls-8" d="M284.52,269.32a1,1,0,0,0,1.37,0l1.83-1.83a1,1,0,0,0-1.38-1.38l-1.82,1.83A1,1,0,0,0,284.52,269.32Z"></path><path class="cls-8" d="M284.27,272.44l1.83,1.83a1,1,0,0,0,1.38-1.38l-1.83-1.83a1,1,0,0,0-1.38,1.38Z"></path><path class="cls-8" d="M279.57,267.73l1.82,1.83a1,1,0,0,0,1.38-1.38l-1.83-1.83a1,1,0,0,0-1.37,0A1,1,0,0,0,279.57,267.73Z"></path><path class="cls-8" d="M298,274.51a1,1,0,0,0,1.38,0l1.82-1.83a1,1,0,0,0-1.38-1.38L298,273.13A1,1,0,0,0,298,274.51Z"></path><path class="cls-8" d="M303.18,269.32a1,1,0,0,0,1.38,0l1.83-1.83a1,1,0,0,0-1.38-1.38l-1.83,1.83A1,1,0,0,0,303.18,269.32Z"></path><path class="cls-8" d="M302.94,272.44l1.82,1.83a1,1,0,0,0,1.38-1.38l-1.82-1.83a1,1,0,0,0-1.38,1.38Z"></path><path class="cls-8" d="M298.23,267.73l1.83,1.83a1,1,0,0,0,1.38-1.38l-1.83-1.83a1,1,0,0,0-1.38,1.38Z"></path><path class="cls-8" d="M325.05,267.49l-.77.78-2.71.2a1,1,0,0,1,.28-.53l1.82-1.83a1,1,0,0,1,1.38,1.38Z"></path><path class="cls-8" d="M320.34,268.57l-2.42.19-1-1a1,1,0,0,1,1.38-1.38l1.82,1.83A.94.94,0,0,1,320.34,268.57Z"></path><path class="cls-8" d="M342.76,266.83l-1.23.09.81-.81a.89.89,0,0,1,.42-.24Z"></path><path class="cls-8" d="M337.8,267.21l-2.45.19a1,1,0,0,1,1.59-1Z"></path><path class="cls-8" d="M213.06,281.83l-1.83,1.83a1,1,0,0,1-1.38,0,.91.91,0,0,1-.24-.41c0-.28.09-.57.14-.84a1.47,1.47,0,0,1,.1-.13l1.83-1.82a1,1,0,0,1,1.38,1.37Z"></path><path class="cls-8" d="M209.61,286.78l1.83,1.83a1,1,0,0,0,1.38-1.38L211,285.41a1,1,0,0,0-1.38,1.37Z"></path><path class="cls-8" d="M223.33,288.85a1,1,0,0,0,1.38,0l1.82-1.82a1,1,0,0,0-1.38-1.38l-1.82,1.82A1,1,0,0,0,223.33,288.85Z"></path><path class="cls-8" d="M228.52,283.66a1,1,0,0,0,1.38,0l1.82-1.83a1,1,0,0,0-1.37-1.37l-1.83,1.82A1,1,0,0,0,228.52,283.66Z"></path><path class="cls-8" d="M228.28,286.78l1.82,1.83a1,1,0,0,0,1.38-1.38l-1.82-1.82a1,1,0,0,0-1.38,1.37Z"></path><path class="cls-8" d="M223.57,282.08l1.83,1.82a1,1,0,0,0,1.37-1.38L225,280.7a1,1,0,0,0-1.38,1.38Z"></path><path class="cls-8" d="M242,288.85a1,1,0,0,0,1.38,0L245.2,287a1,1,0,0,0-1.38-1.38L242,287.47A1,1,0,0,0,242,288.85Z"></path><path class="cls-8" d="M247.19,283.66a1,1,0,0,0,1.37,0l1.83-1.83a1,1,0,0,0-1.38-1.37l-1.82,1.82A1,1,0,0,0,247.19,283.66Z"></path><path class="cls-8" d="M246.94,286.78l1.83,1.83a1,1,0,0,0,1.38-1.38l-1.83-1.82a1,1,0,0,0-1.38,1.37Z"></path><path class="cls-8" d="M242.23,282.08l1.83,1.82a1,1,0,0,0,1.38-1.38l-1.83-1.82a1,1,0,0,0-1.38,1.38Z"></path><path class="cls-8" d="M260.66,288.85a1,1,0,0,0,1.38,0l1.82-1.82a1,1,0,0,0-1.38-1.38l-1.82,1.82A1,1,0,0,0,260.66,288.85Z"></path><path class="cls-8" d="M265.85,283.66a1,1,0,0,0,1.38,0l1.83-1.83a1,1,0,0,0-1.38-1.37l-1.83,1.82A1,1,0,0,0,265.85,283.66Z"></path><path class="cls-8" d="M265.61,286.78l1.82,1.83a1,1,0,0,0,1.38-1.38L267,285.41a1,1,0,0,0-1.38,1.37Z"></path><path class="cls-8" d="M260.9,282.08l1.83,1.82a1,1,0,0,0,1.38-1.38l-1.83-1.82a1,1,0,0,0-1.38,1.38Z"></path><path class="cls-8" d="M279.32,288.85a1,1,0,0,0,1.38,0l1.83-1.82a1,1,0,0,0-1.38-1.38l-1.83,1.82A1,1,0,0,0,279.32,288.85Z"></path><path class="cls-8" d="M284.52,283.66a1,1,0,0,0,1.37,0l1.83-1.83a1,1,0,0,0-1.38-1.37l-1.82,1.82A1,1,0,0,0,284.52,283.66Z"></path><path class="cls-8" d="M284.27,286.78l1.83,1.83a1,1,0,0,0,1.38-1.38l-1.83-1.82a1,1,0,0,0-1.38,1.37Z"></path><path class="cls-8" d="M279.57,282.08l1.82,1.82a1,1,0,0,0,1.38-1.38l-1.83-1.82a1,1,0,0,0-1.37,0A1,1,0,0,0,279.57,282.08Z"></path><path class="cls-8" d="M298,288.85a1,1,0,0,0,1.38,0l1.82-1.82a1,1,0,0,0-1.38-1.38L298,287.47A1,1,0,0,0,298,288.85Z"></path><path class="cls-8" d="M303.18,283.66a1,1,0,0,0,1.38,0l1.83-1.83a1,1,0,0,0-1.38-1.37l-1.83,1.82A1,1,0,0,0,303.18,283.66Z"></path><path class="cls-8" d="M302.94,286.78l1.82,1.83a1,1,0,0,0,1.38-1.38l-1.82-1.82a1,1,0,0,0-1.38,1.37Z"></path><path class="cls-8" d="M298.23,282.08l1.83,1.82a1,1,0,0,0,1.38-1.38l-1.83-1.82a1,1,0,0,0-1.38,1.38Z"></path><path class="cls-8" d="M207.86,301.37l-1.5,1.51.51-3.12a.94.94,0,0,1,1,.23A1,1,0,0,1,207.86,301.37Z"></path><path class="cls-8" d="M209.85,298a1,1,0,0,0,1.38,0l1.83-1.82a1,1,0,0,0-1.38-1.38l-1.83,1.83A1,1,0,0,0,209.85,298Z"></path><path class="cls-8" d="M209.61,301.13l1.83,1.82a1,1,0,0,0,1.38,0,1,1,0,0,0,0-1.37L211,299.75a1,1,0,0,0-1.38,1.38Z"></path><path class="cls-8" d="M208.11,298.25a1,1,0,0,1-1,.22c.12-.75.24-1.5.37-2.25l.65.65A1,1,0,0,1,208.11,298.25Z"></path><path class="cls-8" d="M223.33,303.2a1,1,0,0,0,1.38,0l1.82-1.83a1,1,0,0,0-1.38-1.38l-1.82,1.83A1,1,0,0,0,223.33,303.2Z"></path><path class="cls-8" d="M228.52,298a1,1,0,0,0,1.38,0l1.82-1.82a1,1,0,1,0-1.37-1.38l-1.83,1.83A1,1,0,0,0,228.52,298Z"></path><path class="cls-8" d="M228.28,301.13,230.1,303a1,1,0,0,0,1.38,0,1,1,0,0,0,0-1.37l-1.82-1.83a1,1,0,0,0-1.38,1.38Z"></path><path class="cls-8" d="M223.57,296.42l1.83,1.83a1,1,0,0,0,1.37-1.38L225,295a1,1,0,0,0-1.38,1.38Z"></path><path class="cls-8" d="M242,303.2a1,1,0,0,0,1.38,0l1.83-1.83a1,1,0,0,0-1.38-1.38L242,301.82A1,1,0,0,0,242,303.2Z"></path><path class="cls-8" d="M247.19,298a1,1,0,0,0,1.37,0l1.83-1.82A1,1,0,0,0,249,294.8l-1.82,1.83A1,1,0,0,0,247.19,298Z"></path><path class="cls-8" d="M246.94,301.13l1.83,1.82a1,1,0,0,0,1.38,0,1,1,0,0,0,0-1.37l-1.83-1.83a1,1,0,0,0-1.38,1.38Z"></path><path class="cls-8" d="M242.23,296.42l1.83,1.83a1,1,0,0,0,1.38-1.38L243.61,295a1,1,0,0,0-1.38,1.38Z"></path><path class="cls-8" d="M260.66,303.2a1,1,0,0,0,1.38,0l1.82-1.83a1,1,0,0,0-1.38-1.38l-1.82,1.83A1,1,0,0,0,260.66,303.2Z"></path><path class="cls-8" d="M265.85,298a1,1,0,0,0,1.38,0l1.83-1.82a1,1,0,0,0-1.38-1.38l-1.83,1.83A1,1,0,0,0,265.85,298Z"></path><path class="cls-8" d="M265.61,301.13l1.82,1.82a1,1,0,0,0,1.38,0,1,1,0,0,0,0-1.37L267,299.75a1,1,0,0,0-1.38,1.38Z"></path><path class="cls-8" d="M260.9,296.42l1.83,1.83a1,1,0,0,0,1.38-1.38L262.28,295a1,1,0,0,0-1.38,1.38Z"></path><path class="cls-8" d="M279.32,303.2a1,1,0,0,0,1.38,0l1.83-1.83a1,1,0,0,0-1.38-1.38l-1.83,1.83A1,1,0,0,0,279.32,303.2Z"></path><path class="cls-8" d="M284.52,298a1,1,0,0,0,1.37,0l1.83-1.82a1,1,0,0,0-1.38-1.38l-1.82,1.83A1,1,0,0,0,284.52,298Z"></path><path class="cls-8" d="M284.27,301.13,286.1,303a1,1,0,0,0,1.38,0,1,1,0,0,0,0-1.37l-1.83-1.83a1,1,0,0,0-1.38,1.38Z"></path><path class="cls-8" d="M279.57,296.42l1.82,1.83a1,1,0,0,0,1.38-1.38L280.94,295a1,1,0,0,0-1.37,0A1,1,0,0,0,279.57,296.42Z"></path><path class="cls-8" d="M298,303.2a1,1,0,0,0,1.38,0l1.82-1.83a1,1,0,0,0-1.38-1.38L298,301.82A1,1,0,0,0,298,303.2Z"></path><path class="cls-8" d="M303.18,298a1,1,0,0,0,1.38,0l1.83-1.82A1,1,0,0,0,305,294.8l-1.83,1.83A1,1,0,0,0,303.18,298Z"></path><path class="cls-8" d="M302.94,301.13l1.82,1.82a1,1,0,0,0,1.38,0,1,1,0,0,0,0-1.37l-1.82-1.83a1,1,0,0,0-1.38,1.38Z"></path><path class="cls-8" d="M298.23,296.42l1.83,1.83a1,1,0,0,0,1.38-1.38L299.61,295a1,1,0,0,0-1.38,1.38Z"></path><path class="cls-8" d="M204.66,317.54a1,1,0,0,0,1.38,0l1.83-1.83a1,1,0,0,0-1.38-1.37l-1.83,1.82A1,1,0,0,0,204.66,317.54Z"></path><path class="cls-8" d="M209.85,312.35a1,1,0,0,0,1.38,0l1.83-1.83a1,1,0,0,0-1.38-1.38L209.85,311A1,1,0,0,0,209.85,312.35Z"></path><path class="cls-8" d="M209.61,315.47l1.83,1.83a1,1,0,0,0,1.38-1.38L211,314.09a1,1,0,1,0-1.38,1.38Z"></path><path class="cls-8" d="M208.11,312.59a1,1,0,0,1-1.38,0L205,310.9c.09-.59.19-1.17.29-1.76a1,1,0,0,1,.95.25l1.83,1.82A1,1,0,0,1,208.11,312.59Z"></path><path class="cls-8" d="M223.33,317.54a1,1,0,0,0,1.38,0l1.82-1.83a1,1,0,0,0-1.38-1.37l-1.82,1.82A1,1,0,0,0,223.33,317.54Z"></path><path class="cls-8" d="M228.52,312.35a1,1,0,0,0,1.38,0l1.82-1.83a1,1,0,1,0-1.37-1.38L228.52,311A1,1,0,0,0,228.52,312.35Z"></path><path class="cls-8" d="M228.28,315.47l1.82,1.83a1,1,0,0,0,1.38-1.38l-1.82-1.83a1,1,0,1,0-1.38,1.38Z"></path><path class="cls-8" d="M223.57,310.76l1.83,1.83a1,1,0,0,0,1.37-1.38L225,309.39a1,1,0,0,0-1.38,1.37Z"></path><path class="cls-8" d="M242,317.54a1,1,0,0,0,1.38,0l1.83-1.83a1,1,0,0,0-1.38-1.37L242,316.16A1,1,0,0,0,242,317.54Z"></path><path class="cls-8" d="M247.19,312.35a1,1,0,0,0,1.37,0l1.83-1.83a1,1,0,0,0-1.38-1.38L247.19,311A1,1,0,0,0,247.19,312.35Z"></path><path class="cls-8" d="M246.94,315.47l1.83,1.83a1,1,0,0,0,1.38-1.38l-1.83-1.83a1,1,0,1,0-1.38,1.38Z"></path><path class="cls-8" d="M242.23,310.76l1.83,1.83a1,1,0,0,0,1.38-1.38l-1.83-1.82a1,1,0,0,0-1.38,1.37Z"></path><path class="cls-8" d="M260.66,317.54a1,1,0,0,0,1.38,0l1.82-1.83a1,1,0,0,0-1.38-1.37l-1.82,1.82A1,1,0,0,0,260.66,317.54Z"></path><path class="cls-8" d="M265.85,312.35a1,1,0,0,0,1.38,0l1.83-1.83a1,1,0,0,0-1.38-1.38L265.85,311A1,1,0,0,0,265.85,312.35Z"></path><path class="cls-8" d="M265.61,315.47l1.82,1.83a1,1,0,0,0,1.38-1.38L267,314.09a1,1,0,1,0-1.38,1.38Z"></path><path class="cls-8" d="M260.9,310.76l1.83,1.83a1,1,0,0,0,1.38-1.38l-1.83-1.82a1,1,0,0,0-1.38,1.37Z"></path><path class="cls-8" d="M279.32,317.54a1,1,0,0,0,1.38,0l1.83-1.83a1,1,0,0,0-1.38-1.37l-1.83,1.82A1,1,0,0,0,279.32,317.54Z"></path><path class="cls-8" d="M284.52,312.35a1,1,0,0,0,1.37,0l1.83-1.83a1,1,0,0,0-1.38-1.38L284.52,311A1,1,0,0,0,284.52,312.35Z"></path><path class="cls-8" d="M284.27,315.47l1.83,1.83a1,1,0,0,0,1.38-1.38l-1.83-1.83a1,1,0,1,0-1.38,1.38Z"></path><path class="cls-8" d="M279.57,310.76l1.82,1.83a1,1,0,0,0,1.38-1.38l-1.83-1.82a1,1,0,0,0-1.37,0A1,1,0,0,0,279.57,310.76Z"></path><path class="cls-8" d="M298,317.54a1,1,0,0,0,1.38,0l1.82-1.83a1,1,0,0,0-1.38-1.37L298,316.16A1,1,0,0,0,298,317.54Z"></path><path class="cls-8" d="M303.18,312.35a1,1,0,0,0,1.38,0l1.83-1.83a1,1,0,0,0-1.38-1.38L303.18,311A1,1,0,0,0,303.18,312.35Z"></path><path class="cls-8" d="M302.94,315.47l1.82,1.83a1,1,0,0,0,1.38-1.38l-1.82-1.83a1,1,0,1,0-1.38,1.38Z"></path><path class="cls-8" d="M298.23,310.76l1.83,1.83a1,1,0,0,0,1.38-1.38l-1.83-1.82a1,1,0,0,0-1.38,1.37Z"></path><path class="cls-8" d="M204.66,331.88a1,1,0,0,0,1.38,0l1.83-1.82a1,1,0,0,0-1.38-1.38l-1.83,1.83A1,1,0,0,0,204.66,331.88Z"></path><path class="cls-8" d="M209.85,326.69a1,1,0,0,0,1.38,0l1.83-1.82a1,1,0,0,0-1.38-1.38l-1.83,1.82A1,1,0,0,0,209.85,326.69Z"></path><path class="cls-8" d="M209.61,329.82l1.83,1.82a1,1,0,0,0,1.38-1.38L211,328.44a1,1,0,0,0-1.38,1.38Z"></path><path class="cls-8" d="M204.9,325.11l1.83,1.82a1,1,0,1,0,1.38-1.38l-1.83-1.82a1,1,0,0,0-1.38,1.38Z"></path><path class="cls-8" d="M223.33,331.88a1,1,0,0,0,1.38,0l1.82-1.82a1,1,0,0,0-1.38-1.38l-1.82,1.83A1,1,0,0,0,223.33,331.88Z"></path><path class="cls-8" d="M228.52,326.69a1,1,0,0,0,1.38,0l1.82-1.82a1,1,0,1,0-1.37-1.38l-1.83,1.82A1,1,0,0,0,228.52,326.69Z"></path><path class="cls-8" d="M228.28,329.82l1.82,1.82a1,1,0,0,0,1.38-1.38l-1.82-1.82a1,1,0,0,0-1.38,1.38Z"></path><path class="cls-8" d="M223.57,325.11l1.83,1.82a1,1,0,0,0,1.37-1.38L225,323.73a1,1,0,0,0-1.38,1.38Z"></path><path class="cls-8" d="M242,331.88a1,1,0,0,0,1.38,0l1.83-1.82a1,1,0,0,0-1.38-1.38L242,330.51A1,1,0,0,0,242,331.88Z"></path><path class="cls-8" d="M247.19,326.69a1,1,0,0,0,1.37,0l1.83-1.82a1,1,0,0,0-1.38-1.38l-1.82,1.82A1,1,0,0,0,247.19,326.69Z"></path><path class="cls-8" d="M246.94,329.82l1.83,1.82a1,1,0,0,0,1.38-1.38l-1.83-1.82a1,1,0,0,0-1.38,1.38Z"></path><path class="cls-8" d="M242.23,325.11l1.83,1.82a1,1,0,0,0,1.38-1.38l-1.83-1.82a1,1,0,0,0-1.38,1.38Z"></path><path class="cls-8" d="M260.66,331.88a1,1,0,0,0,1.38,0l1.82-1.82a1,1,0,0,0-1.38-1.38l-1.82,1.83A1,1,0,0,0,260.66,331.88Z"></path><path class="cls-8" d="M265.85,326.69a1,1,0,0,0,1.38,0l1.83-1.82a1,1,0,0,0-1.38-1.38l-1.83,1.82A1,1,0,0,0,265.85,326.69Z"></path><path class="cls-8" d="M265.61,329.82l1.82,1.82a1,1,0,0,0,1.38-1.38L267,328.44a1,1,0,0,0-1.38,1.38Z"></path><path class="cls-8" d="M260.9,325.11l1.83,1.82a1,1,0,0,0,1.38-1.38l-1.83-1.82a1,1,0,0,0-1.38,1.38Z"></path><path class="cls-8" d="M279.32,331.88a1,1,0,0,0,1.38,0l1.83-1.82a1,1,0,0,0-1.38-1.38l-1.83,1.83A1,1,0,0,0,279.32,331.88Z"></path><path class="cls-8" d="M284.52,326.69a1,1,0,0,0,1.37,0l1.83-1.82a1,1,0,0,0-1.38-1.38l-1.82,1.82A1,1,0,0,0,284.52,326.69Z"></path><path class="cls-8" d="M284.27,329.82l1.83,1.82a1,1,0,0,0,1.38-1.38l-1.83-1.82a1,1,0,0,0-1.38,1.38Z"></path><path class="cls-8" d="M279.57,325.11l1.82,1.82a1,1,0,0,0,1.38-1.38l-1.83-1.82a1,1,0,0,0-1.37,0A1,1,0,0,0,279.57,325.11Z"></path><path class="cls-8" d="M298,331.88a1,1,0,0,0,1.38,0l1.82-1.82a1,1,0,0,0-1.38-1.38L298,330.51A1,1,0,0,0,298,331.88Z"></path><path class="cls-8" d="M303.18,326.69a1,1,0,0,0,1.38,0l1.83-1.82a1,1,0,0,0-1.38-1.38l-1.83,1.82A1,1,0,0,0,303.18,326.69Z"></path><path class="cls-8" d="M302.94,329.82l1.82,1.82a1,1,0,0,0,1.38-1.38l-1.82-1.82a1,1,0,0,0-1.38,1.38Z"></path><path class="cls-8" d="M298.23,325.11l1.83,1.82a1,1,0,0,0,1.38-1.38l-1.83-1.82a1,1,0,0,0-1.38,1.38Z"></path><path class="cls-2" d="M279,314.05l-.09-.06a106.73,106.73,0,0,1-17.1-16.44c-7.76-9.34-16.87-23.9-16.23-40.29a.86.86,0,0,1,1.71.07c-.62,15.83,8.25,30,15.8,39.1a105.73,105.73,0,0,0,16.82,16.19.86.86,0,0,1,.19,1.19A.85.85,0,0,1,279,314.05Z"></path><path class="cls-2" d="M280.65,207.19a.92.92,0,0,0,.62-1.74c-19.08-7.51-20.76-20.51-20.77-20.64a.93.93,0,0,0-1.84.2c.07.57,1.75,14.21,21.94,22.16Z"></path><path class="cls-2" d="M271.06,209.76a.92.92,0,0,0,.63-1.73c-10.46-4.35-11.74-10.33-11.75-10.39a.92.92,0,0,0-1.81.35c.06.29,1.5,7,12.85,11.74Z"></path><path class="cls-2" d="M302.9,230.55l2.35,16.77.54,3.84,3.75,26.67.19-10.9-2.28-16.21-2.87-20.41a.85.85,0,1,0-1.68.24Z"></path><path class="cls-2" d="M306.61,251.7a.87.87,0,0,0,.48-.15.84.84,0,0,0,.22-1.18l-5.6-8.28a.84.84,0,0,0-1.18-.22.85.85,0,0,0-.23,1.18l5.6,8.27A.86.86,0,0,0,306.61,251.7Z"></path><path class="cls-9" d="M228.14,338.67a.82.82,0,0,1,.3-.52.86.86,0,0,1,1.2.14l.31.38Z"></path><path class="cls-2" d="M248.56,338.67c-9.82-4.95-20.54-12.71-26.34-24.48a.86.86,0,0,1,.39-1.14.85.85,0,0,1,1.14.39c6.23,12.64,18.42,20.54,28.76,25.23Z"></path><path class="cls-5" d="M273.09,188.29c12.82,5.21,19.66-7.9,19.66-7.9-2.76-5.72-5-16.72-5.68-22.1-.33-2.71-.42-4.52-.42-4.52l-23.8,15.5,1.26,9.91.3,2.43S265.22,185.1,273.09,188.29Z"></path><path class="cls-10" d="M264.11,179.18c13-3.86,20.36-15.9,22.8-22.31a16.37,16.37,0,0,1-.26-3.1l-23.8,15.5Z"></path><path class="cls-11" d="M243,133.27s-3.12-6.18-9.32-3.83S232,158.26,247.44,153.7Z"></path><path class="cls-5" d="M234.69,130.71c.17,1.8.57,4.6,1.24,7.95h0c.46,2.29,1.06,4.84,1.8,7.5.14.51.29,1,.44,1.54s.31,1,.47,1.56.36,1.13.55,1.69c.24.72.5,1.45.76,2.17.4,1.11.83,2.22,1.3,3.31,5.05,12.08,15,19.43,28.06,14.95,11-3.77,17-12.31,20.31-21.4,5.23-14.52,3.4-30.42,3.4-30.42-2.64-21.65-21.75-28.47-41-20.31S233.7,120.57,234.69,130.71Z"></path><path class="cls-10" d="M288.26,130.79s3.62,12.66,1.55,22.27-13.79,27.13-31.2,22.48S239.2,151,239.2,151s2.29,2.37,8.24,2.74S253,148.87,263.8,151s16.8-4.68,17.7-9.4a50.76,50.76,0,0,0,.95-7.88Z"></path><path class="cls-2" d="M268.79,152.5s-12.83,3.09-20.23,2.92c0,0,2.29,9,12.5,6.68C268.8,160.31,268.79,152.5,268.79,152.5Z"></path><path class="cls-12" d="M268.18,143.26c.17,1,2.94,1.31,6.19.75s5.75-1.81,5.58-2.78-2.93-1.31-6.18-.75S268,142.29,268.18,143.26Z"></path><path class="cls-12" d="M238.18,147.71c.15.52.31,1,.47,1.56s.36,1.13.55,1.69c.55-.05,1.14-.12,1.74-.22,3.25-.56,5.75-1.81,5.58-2.78s-2.94-1.3-6.19-.75A17.45,17.45,0,0,0,238.18,147.71Z"></path><path class="cls-10" d="M260.62,127.39a1.58,1.58,0,0,1-.61-.62,1.52,1.52,0,0,1,.64-2,8.38,8.38,0,0,1,5.14-.76,9.93,9.93,0,0,1,4.39,1.93,1.52,1.52,0,0,1-2,2.3,7.2,7.2,0,0,0-3-1.26,5.37,5.37,0,0,0-3.14.47A1.53,1.53,0,0,1,260.62,127.39Z"></path><path class="cls-10" d="M247.08,129.92a1.54,1.54,0,0,0,.3-.82,1.52,1.52,0,0,0-1.41-1.61,8.43,8.43,0,0,0-5,1.42,9.86,9.86,0,0,0-3.21,3.56,1.51,1.51,0,0,0,2.74,1.28,7.62,7.62,0,0,1,2.23-2.37,5.44,5.44,0,0,1,3.05-.86A1.53,1.53,0,0,0,247.08,129.92Z"></path><path class="cls-10" d="M280.85,126.25s1.31,6.32,1.6,7.43c2.81,0,4.46-.31,5.81-2.89a29.92,29.92,0,0,0,0-3,11.9,11.9,0,0,1,5-5.36c-6.68-6-21.59-5.12-21.59-5.12C274.21,123,279.2,124.54,280.85,126.25Z"></path><path class="cls-10" d="M293.24,122.42s7.91-7.63,4.36-13.94c-2-3.62-7.67-1.83-7.67-1.83s5.14-14.75,1-18.6-11.32,2.18-11.32,2.18-1.83-16-12.77-15.81c-9.62.16-3.06,14-3.06,14s-17.31-10.78-24.58-6.68C228.09,88,243,98,243,98s-21-6.94-18.35,4.51c1.29,5.47,9.4,7.87,9.4,7.87s-8.67,3.13-9.22,6.93c-1,6.53,8.6,4.6,8.6,4.6-.35,2.21.61,4.36.94,5.72l3.81-1.58s-.22-5.49,1-8.74c0,0,26.49,1.44,32.86-7.27,0,0-3.05,2.07-.43,7.31Z"></path><path class="cls-10" d="M238.22,126a12.65,12.65,0,0,1-1.11,6.48,10.41,10.41,0,0,0-1.05,5.34l.17,2.25s-3.14-8.76-1.82-12.49Z"></path><path class="cls-10" d="M263.59,134.94c.32,1.71,1.34,2.94,2.27,2.76s1.42-1.7,1.09-3.4-1.34-2.94-2.27-2.76S263.26,133.24,263.59,134.94Z"></path><path class="cls-10" d="M243.28,139c.33,1.7,1.34,2.94,2.27,2.76s1.42-1.7,1.09-3.4-1.34-2.94-2.27-2.77S243,137.27,243.28,139Z"></path><path class="cls-12" d="M258.93,148a1,1,0,0,0,.6-1.08,1,1,0,0,0-1.14-.83c-.9.14-1.64.2-2.16.23a63.66,63.66,0,0,1,0-8.08,1,1,0,1,0-2-.14,60.78,60.78,0,0,0,.06,9.37,1,1,0,0,0,1,.87,20.17,20.17,0,0,0,3.4-.28A.86.86,0,0,0,258.93,148Z"></path><path class="cls-5" d="M288.22,127.78s2.09-6.6,8.59-5.28,8.85,25-7.14,23Z"></path><path class="cls-11" d="M292.46,140.41a1,1,0,0,0,.59-1.13A12,12,0,0,1,296.5,128a1,1,0,0,0-1.29-1.53,13.9,13.9,0,0,0-4.11,13.21,1,1,0,0,0,1.18.77Z"></path><path class="cls-11" d="M297,134.58a1,1,0,0,0,.61-.76,1,1,0,0,0-.83-1.15c-.36,0-3.6-.52-5.47,1.13a1,1,0,0,0,1.32,1.5c1-.88,3.15-.76,3.83-.65A1,1,0,0,0,297,134.58Z"></path><path class="cls-2" d="M293,132a18.83,18.83,0,0,0-.24,4.38s3-.18,3.14-2.37C296,131.44,293,132,293,132Z"></path><path class="cls-2" d="M293.6,134l-.89.36s-.24,7.46,1.41,7.36c1.41-.08.34-7.06.34-7.06Z"></path><path class="cls-2" d="M256.93,138.19a10.28,10.28,0,1,1,11.46,8.94A10.29,10.29,0,0,1,256.93,138.19Zm1.3-.16A9,9,0,1,0,266,128,9,9,0,0,0,258.23,138Z"></path><path class="cls-2" d="M274.23,131.3a.66.66,0,0,0,.48.14.72.72,0,0,0,.44-.24,22.4,22.4,0,0,1,14.94-6.57,10.25,10.25,0,0,1,1.43-1.24,24.19,24.19,0,0,0-17.4,7A.65.65,0,0,0,274.23,131.3Z"></path><path class="cls-2" d="M233.46,142.36a10.28,10.28,0,1,1,11.46,8.95A10.3,10.3,0,0,1,233.46,142.36Zm1.3-.16a9,9,0,1,0,7.81-10A9,9,0,0,0,234.76,142.2Z"></path><path class="cls-2" d="M252.8,138.55a.65.65,0,0,0,.52-.41,2.61,2.61,0,0,1,1.76-1.44,2.14,2.14,0,0,1,1.94.65.65.65,0,1,0,1-.84,3.43,3.43,0,0,0-3.19-1.09,3.9,3.9,0,0,0-2.71,2.24.65.65,0,0,0,.37.85A.69.69,0,0,0,252.8,138.55Z"></path><path class="cls-5" d="M312.58,269.17c0,.88.09,1.87.14,2.95l0,.79c.28,6.42.66,15.42,1.11,21.22.36,4.63.77,9.35,1.24,13.8.1.87.19,1.74.29,2.59,0,0,0,.07,0,.1.12,1,.23,2,.36,2.93.4,3.23.85,6.2,1.34,8.7,2,10.4,7.93,16.49,13.39,15.64,3.78-.59,7.34-4.52,9.2-12.67,3.13-13.64,2.87-36.4,1.54-49.3-.08-.83-.34-4-.53-6.34-.1-1.11-.18-2-.23-2.48a.28.28,0,0,0,0-.09Z"></path><path class="cls-5" d="M312.57,269.17c.05,1.1.09,2.36.15,3.74h0L340.7,270c-.1-1.29-.18-2.38-.23-2.88a.28.28,0,0,0,0-.09l-27.88,2.16Z"></path><path class="cls-5" d="M196.91,287.85s5.85-7.09-12.14-30-20.52-31.42-26.86-35.25c-16.62-10,8.1,74.23,25.6,74.57C192.46,297.35,196.91,287.85,196.91,287.85Z"></path><path class="cls-11" d="M145.52,217.31s-5.77-3.74-6.21-9.13a13.14,13.14,0,0,1,3.11-9.21Z"></path><path class="cls-13" d="M139,187.62l7,32.83a3.2,3.2,0,0,0,3,2.54h.18l17.34,0a3.21,3.21,0,0,0,3.14-3.89l-7-32.84a3.22,3.22,0,0,0-3.15-2.54h-2.88l-14.46,0A3.21,3.21,0,0,0,139,187.62Z"></path><path class="cls-6" d="M139,187.62l7,32.83a3.2,3.2,0,0,0,3,2.54l14.46,0a3.21,3.21,0,0,0,3.14-3.89l-7-32.84a3.22,3.22,0,0,0-3-2.54l-14.46,0A3.21,3.21,0,0,0,139,187.62Z"></path><path class="cls-13" d="M148.44,202.55a3.26,3.26,0,1,0,3.26-3.26A3.26,3.26,0,0,0,148.44,202.55Z"></path><path class="cls-5" d="M153.53,234.25s-8.48-11.74-12.3-24.59A56.25,56.25,0,0,1,139.34,186s1.66-1.81,2.75,4.48,2.1,11.12,2.1,11.12-2.17-20.7,0-21.13c2.41-.48,4.37,20.26,4.37,20.26s-.45-17.82,1.19-18.83,2.64,14,3.37,18.06c0,0,.35-11.21,2.18-11.94s1.8,13,3,17,5.77,7.39,6,13.86S162.28,235.94,153.53,234.25Z"></path><path class="cls-5" d="M264.87,338.71s29.74.22,53,0h9.52a9.7,9.7,0,0,0,3.08-.78c3.77-1.64,7.28-5.82,8.67-12.54l.4-2A10.83,10.83,0,0,0,334,311.59l-.43-.21a10,10,0,0,0-2.88-.86,29.4,29.4,0,0,0-10.39-.84l-.89.1-.7.09c-1.12.16-2.24.38-3.35.65l-.31.08c-6,1.5-11.81,4.45-17.64,7.76-12,6.85-33.1,10.46-33.1,10.46C259.43,334.12,264.87,338.71,264.87,338.71Z"></path><path class="cls-6" d="M315.08,310.6l.32,0a28.07,28.07,0,0,1,10.53,3.08,28.62,28.62,0,0,0-5.6-4,14.45,14.45,0,0,0-5.23-1.75c.1.87.19,1.74.29,2.59Z"></path><path class="cls-5" d="M264.34,328.23s-13-4.77-22-2.81-12.51,12.95-12.51,12.95l34.66-.4S269.14,329.69,264.34,328.23Z"></path><path class="cls-14" d="M67.82,298.71l9.12,38.56A2.28,2.28,0,0,0,79.15,339h56.17a2.28,2.28,0,0,0,2.21-2.81l-9.11-38.56a2.29,2.29,0,0,0-2.22-1.75H70A2.28,2.28,0,0,0,67.82,298.71Z"></path><path class="cls-15" d="M74.44,336.05a.39.39,0,0,1-.38-.3l-7.81-33a.39.39,0,0,1,.76-.18l7.81,33a.39.39,0,0,1-.29.47Z"></path><path class="cls-15" d="M124,295.91,133.68,339h1.64a2.28,2.28,0,0,0,2.21-2.81l-9.11-38.56a2.29,2.29,0,0,0-2.22-1.75Z"></path><path class="cls-15" d="M95.57,319.77a4.27,4.27,0,1,0,4.27-4.27A4.27,4.27,0,0,0,95.57,319.77Z"></path><rect class="cls-16" x="166.75" y="330.62" width="136.14" height="8.14" rx="2.08" transform="translate(469.63 669.37) rotate(180)"></rect><path class="cls-17" d="M122.2,264.13l16.86,71.29a4.21,4.21,0,0,0,4.1,3.25H247a4.21,4.21,0,0,0,4.1-5.18L234.24,262.2a4.22,4.22,0,0,0-4.1-3.25H126.3A4.22,4.22,0,0,0,122.2,264.13Z"></path><path class="cls-16" d="M226,259,244,338.67h3a4.21,4.21,0,0,0,4.1-5.18L234.24,262.2a4.22,4.22,0,0,0-4.1-3.25Z"></path><circle class="cls-16" cx="181.4" cy="303.07" r="7.89"></circle><path class="cls-2" d="M248.66,321.7a.39.39,0,0,1-.38-.3L234.71,264a.39.39,0,1,1,.76-.18L249,321.22a.39.39,0,0,1-.29.47Z"></path><rect class="cls-6" x="-0.11" y="338.77" width="471.19" height="5.74" rx="1.46" transform="translate(470.96 683.27) rotate(180)"></rect><path class="cls-2" d="M413.44,139.53H333.17v58.06a3.29,3.29,0,0,0,3.3,3.29h73.68a3.29,3.29,0,0,0,3.29-3.29Z"></path><path class="cls-16" d="M413.44,138.11V145h-80.2v-6.9a3.36,3.36,0,0,1,3.36-3.36h73.48A3.35,3.35,0,0,1,413.44,138.11Z"></path><circle class="cls-2" cx="397.81" cy="139.39" r="1.79"></circle><circle class="cls-18" cx="403.63" cy="139.39" r="1.79"></circle><circle class="cls-19" cx="409.19" cy="139.39" r="1.79"></circle><rect class="cls-16" x="384.3" y="152.5" width="4.36" height="4.36"></rect><rect class="cls-7" x="384.3" y="160.27" width="4.36" height="4.36"></rect><path class="cls-19" d="M407.38,161.22H392.9a1.29,1.29,0,0,0-1.34,1.23h0a1.29,1.29,0,0,0,1.34,1.23h14.48a1.3,1.3,0,0,0,1.35-1.23h0A1.3,1.3,0,0,0,407.38,161.22Z"></path><path class="cls-19" d="M407.38,153.45H392.9a1.29,1.29,0,0,0-1.34,1.23h0a1.29,1.29,0,0,0,1.34,1.23h14.48a1.3,1.3,0,0,0,1.35-1.23h0A1.3,1.3,0,0,0,407.38,153.45Z"></path><path class="cls-19" d="M384.37,186.55h0a1.23,1.23,0,0,0,1.23,1.23h21.78a1.23,1.23,0,0,0,1.22-1.23h0a1.22,1.22,0,0,0-1.22-1.22H385.6A1.23,1.23,0,0,0,384.37,186.55Z"></path><path class="cls-19" d="M384.34,181.62h0a1.23,1.23,0,0,0,1.23,1.23h21.78a1.23,1.23,0,0,0,1.23-1.23h0a1.23,1.23,0,0,0-1.23-1.23H385.57A1.23,1.23,0,0,0,384.34,181.62Z"></path><rect class="cls-19" x="384.32" y="175.46" width="24.24" height="2.46" rx="1.23"></rect><path class="cls-19" d="M384.3,171.75h0a1.23,1.23,0,0,0,1.23,1.23h21.78a1.23,1.23,0,0,0,1.23-1.23h0a1.23,1.23,0,0,0-1.23-1.23H385.53A1.23,1.23,0,0,0,384.3,171.75Z"></path><path class="cls-7" d="M375.11,171.54a16.24,16.24,0,1,1-31.22-6.27l15,6.27-.77-16.21c.26,0,.51,0,.77,0A16.24,16.24,0,0,1,375.11,171.54Z"></path><path class="cls-16" d="M356.64,152.77a16.32,16.32,0,0,0-14.22,9.94l15,6.27Z"></path><polygon class="cls-4" points="351.31 298.89 351.01 302.38 350.49 308.26 350.39 309.38 349.96 314.39 349.48 319.83 349.46 320.08 348.92 326.32 348.44 331.87 347.83 338.77 328.68 338.77 328.54 337.19 327.96 330.49 327.6 326.44 327.03 319.83 327.02 319.72 326.66 315.69 326.12 309.38 326.08 308.93 325.73 304.92 325.2 298.89 351.31 298.89"></polygon><polygon class="cls-2" points="350.39 309.38 349.96 314.39 349.48 319.83 327.03 319.83 327.02 319.72 326.66 315.69 326.12 309.38 350.39 309.38"></polygon><rect class="cls-18" x="323.86" y="293.79" width="28.79" height="5.1"></rect><path class="cls-4" d="M327.51,289.46H349a1.48,1.48,0,0,1,1.48,1.48v2.85a0,0,0,0,1,0,0H326a0,0,0,0,1,0,0v-2.85A1.48,1.48,0,0,1,327.51,289.46Z"></path><path class="cls-7" d="M355.58,322.64a1.66,1.66,0,0,1-1,.38,2.25,2.25,0,0,1-.71,0,3.7,3.7,0,0,1-1-.33s.16-6.72-2.56-11.35-6.31-11-3.43-14.3,7.51,1.28,9,8.95S355.58,322.64,355.58,322.64Z"></path><path class="cls-20" d="M354.56,323a2.25,2.25,0,0,1-.71,0,40,40,0,0,0-4.6-21.24.35.35,0,0,1,.12-.49.36.36,0,0,1,.49.12A40.57,40.57,0,0,1,354.56,323Z"></path><path class="cls-7" d="M364.9,311.8c-6.36,10.28-5.92,12.66-5.92,12.66l-.83-.15-.71-.13-1-.18c-.56-4.56,2.94-23.83,9.19-23.83S367.07,308.3,364.9,311.8Z"></path><path class="cls-20" d="M364.66,305.88c-.06.1-5.38,9.6-6.51,18.43l-.71-.13c1.16-9,6.54-18.55,6.59-18.65a.36.36,0,0,1,.5-.14A.36.36,0,0,1,364.66,305.88Z"></path><path class="cls-7" d="M350.93,324.06h0Z"></path><path class="cls-7" d="M352.8,323.56l-.73.19-.7.19-.42.12c0-.1-.29-.88-4.76-6.86-1.85-2.47-6.78-9.12-2.26-10.23C348.07,306,352.92,320.11,352.8,323.56Z"></path><path class="cls-20" d="M352.07,323.75l-.7.19c-1.29-5.76-6.52-12.83-6.58-12.9a.36.36,0,1,1,.58-.43C345.6,310.92,350.74,317.86,352.07,323.75Z"></path><path class="cls-21" d="M361.67,322v16.74H347.44V322a.49.49,0,0,1,.49-.49h13.25A.49.49,0,0,1,361.67,322Z"></path><rect class="cls-16" x="347.44" y="323.09" width="14.22" height="0.41"></rect><rect class="cls-16" x="347.44" y="325.41" width="14.22" height="0.41"></rect><rect class="cls-16" x="347.44" y="334.79" width="14.22" height="0.41"></rect><rect class="cls-16" x="347.44" y="337.12" width="14.22" height="0.41"></rect><path class="cls-22" d="M155.32,314.78h1.45v-2.15H102.22a6.55,6.55,0,1,0,0,13.1h54.55v-1.87h-1.45Z"></path><path class="cls-2" d="M155.7,314.78v9.08H105.64a4.48,4.48,0,0,1-4.42-4.54,4.61,4.61,0,0,1,1.3-3.21,4.34,4.34,0,0,1,3.12-1.33Z"></path><path class="cls-3" d="M155.7,317.08v1.39H106.94a.69.69,0,0,1-.69-.69h0a.69.69,0,0,1,.69-.69Z"></path><path class="cls-3" d="M155.7,320.5v1.39H106.94a.69.69,0,0,1-.69-.69h0a.69.69,0,0,1,.69-.69Z"></path><path class="cls-4" d="M160,327.88h1.44v-2.15H106.87a6.55,6.55,0,0,0,0,13.1h54.55V337H160Z"></path><path class="cls-2" d="M160.35,327.88V337h-50a4.47,4.47,0,0,1-4.42-4.54,4.59,4.59,0,0,1,1.29-3.21,4.37,4.37,0,0,1,3.13-1.33Z"></path><path class="cls-3" d="M160.35,330.18v1.39H111.59a.69.69,0,0,1-.69-.69h0a.69.69,0,0,1,.69-.69Z"></path><path class="cls-3" d="M160.35,333.6V335H111.59a.7.7,0,0,1-.69-.7h0a.69.69,0,0,1,.69-.69Z"></path><path class="cls-2" d="M81.91,164a3.82,3.82,0,0,1-2.78-1.19A3.77,3.77,0,0,1,78,160.07V117.18a4,4,0,0,1,4-4h4.32A3.68,3.68,0,0,1,89,114.39a3.86,3.86,0,0,1,1.15,2.79v36.48c0,.38.21.56.63.56h16.92a4,4,0,0,1,4,4v1.88a4.07,4.07,0,0,1-4,4Z"></path><path class="cls-2" d="M124.46,164a3.82,3.82,0,0,1-2.79-1.19,3.77,3.77,0,0,1-1.18-2.78V117.18a4,4,0,0,1,4-4h4a5.79,5.79,0,0,1,5.43,3.62l10.79,26.25s0,.07.07.07.07,0,.07-.07l10.79-26.25a5.79,5.79,0,0,1,5.43-3.62h4.25a3.81,3.81,0,0,1,2.79,1.18,3.85,3.85,0,0,1,1.18,2.79v42.89a4,4,0,0,1-4,4h-3.34a3.69,3.69,0,0,1-2.75-1.19,3.82,3.82,0,0,1-1.15-2.78V133a.06.06,0,0,0-.07-.07c-.09,0-.14,0-.14.07l-6.68,15.81a5.77,5.77,0,0,1-2.2,2.65,5.93,5.93,0,0,1-3.3,1h-1.81a5.94,5.94,0,0,1-3.31-1,5.77,5.77,0,0,1-2.2-2.65L131.63,133s0-.07-.14-.07a.06.06,0,0,0-.07.07v27.09a3.82,3.82,0,0,1-1.15,2.78,3.69,3.69,0,0,1-2.75,1.19Z"></path><path class="cls-2" d="M194.64,143.71q-8.76-2.79-12.67-6.93a14.23,14.23,0,0,1-3.9-10.13,12.73,12.73,0,0,1,4.56-10.34q4.56-3.8,13.06-3.8A43.29,43.29,0,0,1,207.32,114a4.82,4.82,0,0,1,2.68,2,5.82,5.82,0,0,1,1,3.31v2a2.43,2.43,0,0,1-1.19,2.15,2.63,2.63,0,0,1-2.5.28,33.14,33.14,0,0,0-10.94-2.09q-6.4,0-6.4,5c0,2.83,1.85,4.85,5.57,6q9.6,2.93,13.33,6.83a14.17,14.17,0,0,1,3.73,10.23q0,15-18.87,15a29.82,29.82,0,0,1-10.86-1.88,4.92,4.92,0,0,1-2.61-2.19,6.53,6.53,0,0,1-.94-3.45V155a2.11,2.11,0,0,1,1.11-1.92,2.2,2.2,0,0,1,2.23-.1,23.2,23.2,0,0,0,10.37,2.5,9.33,9.33,0,0,0,5.61-1.42,4.79,4.79,0,0,0,1.91-4.08,5.41,5.41,0,0,0-1.32-3.76A10.49,10.49,0,0,0,194.64,143.71Z"></path><rect class="cls-2" x="48.06" y="189.09" width="58.51" height="89.02" rx="5.73" transform="translate(154.63 467.2) rotate(-180)"></rect><circle class="cls-20" cx="77.32" cy="217.84" r="19.14" transform="translate(-153.43 204.16) rotate(-67.07)"></circle><path class="cls-18" d="M74.08,199l3.24,18.87L59.77,225.5A19.14,19.14,0,0,1,74.08,199Z"></path><path class="cls-7" d="M77.32,217.84,65.62,233a19.23,19.23,0,0,1-5.81-7.39Z"></path><path class="cls-16" d="M77.32,217.84l17.13,8.54A19.13,19.13,0,0,1,65.62,233Z"></path><path class="cls-23" d="M96.42,216.64c0,.4,0,.79,0,1.2a19.11,19.11,0,0,1-2,8.54h0l-17.13-8.54Z"></path><path class="cls-23" d="M96.4,247.49A1.62,1.62,0,1,0,98,245.88,1.62,1.62,0,0,0,96.4,247.49Z"></path><rect class="cls-18" x="69.07" y="247.36" width="25.57" height="0.27"></rect><path class="cls-18" d="M96.4,254.72A1.62,1.62,0,1,0,98,253.1,1.62,1.62,0,0,0,96.4,254.72Z"></path><rect class="cls-18" x="69.07" y="254.58" width="25.57" height="0.27"></rect><path class="cls-16" d="M96.4,261.94a1.62,1.62,0,1,0,3.23,0,1.62,1.62,0,0,0-3.23,0Z"></path><rect class="cls-18" x="69.07" y="261.81" width="25.57" height="0.27"></rect><path class="cls-7" d="M96.4,269.17A1.62,1.62,0,1,0,98,267.56,1.62,1.62,0,0,0,96.4,269.17Z"></path><rect class="cls-18" x="69.07" y="269.04" width="25.57" height="0.27"></rect><path class="cls-18" d="M62.49,264.16a.8.8,0,0,1-.44-.13l-7.48-5a.78.78,0,0,1,0-1.3l7.48-5a.78.78,0,1,1,.88,1.3l-6.51,4.39,6.51,4.39a.79.79,0,0,1,.22,1.09A.8.8,0,0,1,62.49,264.16Z"></path><path class="cls-2" d="M102.71,184.9a.25.25,0,0,1-.19-.09.27.27,0,0,1,0-.37l3.86-3.57a.27.27,0,0,1,.36.39l-3.86,3.57A.29.29,0,0,1,102.71,184.9Z"></path><path class="cls-2" d="M106.57,184.9a.31.31,0,0,1-.18-.07l-3.86-3.57a.27.27,0,0,1,0-.37.26.26,0,0,1,.37,0l3.86,3.57a.26.26,0,0,1,0,.37A.25.25,0,0,1,106.57,184.9Z"></path><path class="cls-2" d="M99.91,184.9H96.34a.26.26,0,0,1-.26-.26v-3.58a.26.26,0,0,1,.26-.26h3.57a.26.26,0,0,1,.26.26v3.58A.26.26,0,0,1,99.91,184.9Zm-3.31-.53h3.05v-3H96.6Z"></path><path class="cls-2" d="M91.72,184.92a2.07,2.07,0,1,1,2.08-2.07A2.07,2.07,0,0,1,91.72,184.92Zm0-3.62a1.55,1.55,0,1,0,1.55,1.55A1.55,1.55,0,0,0,91.72,181.3Z"></path><path class="cls-2" d="M88,183.11H63.43a.26.26,0,0,1-.26-.26.25.25,0,0,1,.26-.26H88a.25.25,0,0,1,.26.26A.26.26,0,0,1,88,183.11Z"></path><path class="cls-4" d="M428.7,226.48H387.29a2.46,2.46,0,0,1-2.46-2.46h0a2.46,2.46,0,0,1,2.46-2.46H428.7a2.46,2.46,0,0,1,2.46,2.46h0A2.46,2.46,0,0,1,428.7,226.48Z"></path><path class="cls-2" d="M418.41,221.56h-31a2.53,2.53,0,0,0-2.51,1.95,2.47,2.47,0,0,0,2.41,3h31.12Z"></path><circle class="cls-7" cx="419.89" cy="224.02" r="3.99"></circle><path class="cls-4" d="M428.7,241.12H387.29a2.46,2.46,0,0,1-2.46-2.46h0a2.46,2.46,0,0,1,2.46-2.46H428.7a2.46,2.46,0,0,1,2.46,2.46h0A2.46,2.46,0,0,1,428.7,241.12Z"></path><path class="cls-2" d="M399.5,236.2H386c-.52,0-1,.79-1.09,2-.14,1.58.38,3,1.05,3H399.5Z"></path><circle class="cls-7" cx="399.95" cy="238.66" r="3.99"></circle><path class="cls-4" d="M428.7,255.76H387.29a2.46,2.46,0,0,1-2.46-2.46h0a2.46,2.46,0,0,1,2.46-2.46H428.7a2.46,2.46,0,0,1,2.46,2.46h0A2.46,2.46,0,0,1,428.7,255.76Z"></path><path class="cls-2" d="M414.9,250.84H387.12a2.32,2.32,0,0,0-2.24,1.95,2.41,2.41,0,0,0,2.16,3H414.9Z"></path><circle class="cls-7" cx="413.23" cy="253.3" r="3.99"></circle><ellipse class="cls-22" cx="211.46" cy="86.98" rx="2.67" ry="1.56"></ellipse><path class="cls-22" d="M206.3,82.34h10.31a0,0,0,0,1,0,0V86.2a.78.78,0,0,1-.78.78h-8.75a.78.78,0,0,1-.78-.78V82.34A0,0,0,0,1,206.3,82.34Z"></path><path class="cls-2" d="M226.05,60a14.59,14.59,0,1,0-25.38,9.81,15.57,15.57,0,0,1,4,7.76l.5,2.83a2.74,2.74,0,0,0,2.69,2.26h7.22a2.74,2.74,0,0,0,2.69-2.26l.45-2.57a15,15,0,0,1,3.8-7.78A14.48,14.48,0,0,0,226.05,60Z"></path><path class="cls-22" d="M216.36,66.79h-.05a.54.54,0,0,1-.48-.59c.41-4.23.24-8.24-.36-8.59-.17,0-.35.23-.46.42a4,4,0,0,0-.37.88,11.16,11.16,0,0,1,.28,2.45c0,.55,0,1.83-.84,1.83s-.85-1.34-.85-1.84a10.4,10.4,0,0,1,.3-2.45,3.5,3.5,0,0,0-.39-1c-.14-.23-.25-.31-.31-.31s-.3.12-.56.59a5.77,5.77,0,0,0-.37.83,9,9,0,0,1,.36,2.39,3.41,3.41,0,0,1-.13,1,.89.89,0,0,1-.84.71c-.35,0-.94-.2-.94-1.59a9.46,9.46,0,0,1,.43-2.57,4.57,4.57,0,0,0-.31-.74c-.23-.42-.48-.67-.67-.67s-.43.36-.51.51-.13.3-.19.46c.46,1.52.71,3.68.2,4.33a.7.7,0,0,1-.71.26c-1.08-.23-.91-2.6-.83-3.32A8.42,8.42,0,0,1,208,58.6c0-.07,0-.13-.07-.2a2.32,2.32,0,0,0-.41-.72c-.48.84-.71,5-.62,8.56a.54.54,0,0,1-.53.55h0a.54.54,0,0,1-.54-.52c0-1.93-.11-8.3,1-9.44a.88.88,0,0,1,.63-.28,1.36,1.36,0,0,1,1.11.74,1.49,1.49,0,0,1,1.25-.74,1.87,1.87,0,0,1,1.54,1.12c.43-.74.93-1.12,1.49-1.12a1.5,1.5,0,0,1,1.28.9,1.63,1.63,0,0,1,1.38-.9,1,1,0,0,1,.8.37c1.31,1.44.74,8.07.61,9.38A.54.54,0,0,1,216.36,66.79Z"></path><path class="cls-22" d="M211.47,42a.54.54,0,0,1-.54-.54V33.63a.54.54,0,0,1,1.08,0v7.79A.54.54,0,0,1,211.47,42Z"></path><path class="cls-22" d="M202.14,44.54a.53.53,0,0,1-.46-.26l-3.9-6.75a.53.53,0,0,1,.2-.73.54.54,0,0,1,.73.19l3.9,6.75a.54.54,0,0,1-.2.73A.52.52,0,0,1,202.14,44.54Z"></path><path class="cls-22" d="M195.36,51.45a.6.6,0,0,1-.27-.07l-6.75-3.9a.54.54,0,1,1,.54-.93l6.74,3.9a.53.53,0,0,1,.2.73A.54.54,0,0,1,195.36,51.45Z"></path><path class="cls-22" d="M234.19,73.87a.54.54,0,0,1-.27-.07l-6.74-3.9a.54.54,0,1,1,.53-.93l6.75,3.9a.54.54,0,0,1,.2.73A.55.55,0,0,1,234.19,73.87Z"></path><path class="cls-22" d="M192.93,60.82h-7.79a.54.54,0,1,1,0-1.08h7.79a.54.54,0,0,1,0,1.08Z"></path><path class="cls-22" d="M237.77,60.82H230a.54.54,0,0,1,0-1.08h7.79a.54.54,0,0,1,0,1.08Z"></path><path class="cls-22" d="M188.77,74a.54.54,0,0,1-.27-1l6.75-3.9a.54.54,0,1,1,.53.93L189,74A.54.54,0,0,1,188.77,74Z"></path><path class="cls-22" d="M227.61,51.62a.55.55,0,0,1-.47-.27.53.53,0,0,1,.2-.73l6.74-3.9a.54.54,0,1,1,.54.93l-6.75,3.9A.48.48,0,0,1,227.61,51.62Z"></path><path class="cls-22" d="M220.94,44.84a.48.48,0,0,1-.26-.07.53.53,0,0,1-.2-.73l3.9-6.75a.54.54,0,0,1,.73-.2.54.54,0,0,1,.19.74l-3.89,6.74A.53.53,0,0,1,220.94,44.84Z"></path></g></svg> 